<svg xmlns="http://www.w3.org/2000/svg" viewBox="0 0 1280 720"><g fill="none" stroke-width="2"><path stroke="#e9e6d5" d="m1280 2.31-.17 16.81a1.26 1.26 0 0 1-1.39 1.24c-4.87-.48-10.36-.28-14.73-.28q-485.7.02-971.4-.09c-72.68-.02-145.44.66-218.11.06q-37.1-.31-74.2.39" vector-effect="non-scaling-stroke"/><path stroke="#e9e8e2" d="M1280 47.81q-3.55 10.17-14.48 10.42-1.55.04-4.78 1.45-.47.21-.98.11-3.35-.63-6.37.96-.45.24-.94.13c-3.2-.73-6.28.54-8.8.54q-133.23.15-266.46.13l-640-.06q-40.15-.01-62.2-.37c-16.7-.27-33.57.57-50.39.44q-.6-.01-.6-.61v-.44q0-.56-.41-.18c-.6.54-1.27.99-2.12.98-13.28-.24-26.47.26-39.75.28-4.29.01-9.34-.03-13.31-.29-14.22-.95-26.37 1.47-42.47 2.26-2.14.1-4.28-.39-6.5-.4q-2.33-.01-4.81-.43c-3.01-.5-5.57 0-8.68-.77-2.95-.74-5.98-.45-9.11-.92q-2.54-.38-5.13.05-.5.09-.98-.1-2.54-.98-3.74-.79c-3.8.64-6.86-1.04-10.48-.26q-1.87.4-3.46.38-9.4-.16-18.75.99-1.97.24-5.67-1.83-.37-.21-.8-.2l-6.74.09q-.53.01-.99.25-3.56 1.88-7.58 2.37-.52.06-.52-.46v-1.26q0-.55-.53-.4-4.28 1.24-9.47.92-3.53-.22-7.56.53-2.2.41-4.32-.02c-3.37-.68-8.4-.49-10.12-4.61" vector-effect="non-scaling-stroke"/><path stroke="#e4cb90" d="m0 474.19.3 1.79q.12.75.39.04 1.17-3.03 3.79-5.01a.45.45 0 0 1 .72.44c-.39 2.36-.98 6.55 1.94 7.57q.49.17.73-.29 2.94-5.65.53-11.5-.19-.46.02-.91l.41-.83q.46-.96.78.05c.51 1.6-.12 4.66 1.73 5.19q.68.2.81-.5.9-4.9-.17-9.75a.31.31 0 0 1 .56-.25q1.08 1.54 2.89 1.2a.58.58 0 0 0 .36-.91l-2.67-3.66q-.27-.38-.05-.8.13-.24.32-.26" vector-effect="non-scaling-stroke"/><path stroke="#77a3be" d="M13.39 455.8q3.51.25 10.61-.22c14.55-.95 31.26-.16 46.65-1.33q8.76-.66 17.53-1.33.59-.05.55-.64-.07-1.04 1.82-1.01.44 0 .78.28l.9.75q.47.39 1.03.15l1.92-.8q.6-.26.79.36.51 1.68 3.21 1.12c4.24-.88 10.04-3.17 14.22-2.06q.55.14.7-.4l.44-1.59q.15-.51.68-.51l5.78-.11" vector-effect="non-scaling-stroke"/><path stroke="#d0898c" d="m121 448.46 12.96.22a.56.56 0 0 0 .57-.59q-.27-5.45.01-10.87c.34-6.69-.75-13.29.15-20.17" vector-effect="non-scaling-stroke"/><path stroke="#77a3be" d="M134.69 417.05q3.22-7.54 1.65-15.63c-.23-1.15-.07-3.55.13-4.65 2.35-12.63.05-25.56 1.36-39.79.27-2.93 1.31-4.89-1.01-7.42q-.34-.37-.34-.88c.07-5.88 1.83-11.64 1.85-17.68q.03-11.86.77-23.68.31-4.98-.1-8.03" vector-effect="non-scaling-stroke"/><path stroke="#e4cb90" d="M139 299.29q3.05-1.7 6.15-.37.43.19.88.1l2.95-.58q.7-.14.59.56l-.3 1.79a.36.36 0 0 0 .5.39l7.49-3.14q1.17-.49-.07-.72l-.95-.18q-.62-.12-.42-.71 1-3.07-2.01-4.53-1.27-.62.11-.87l3.32-.59q.35-.07.34-.42c-.06-1.32-3.64-.72-4.28-.41q-.47.22-.7.68c-.41.83-4 4.12-4.29 2.58q-.07-.37.26-.54l1.75-.86q.36-.18.15-.54l-.17-.3q-.22-.36-.63-.3-3.06.46-3.5-2.27-.1-.62-.72-.57-3.8.33-7.09-1.56-.54-.31-.98.13-2.09 2.1-4.95 3.09-.59.2-.58-.43c.03-2.05-1.48-2.67-3.38-2.61q-6.73.22-12.87-2.36-.38-.16-.79-.1l-8.42 1.25q-.71.11-1.17-.43-1.77-2.05-4.21-.62-.41.24-.89.2l-8.49-.67q-.56-.05-.9-.51c-2-2.72-4.5 1.96-7.61-.32q-.4-.29-.9-.3c-5.76-.02-12.44-.6-16.22 2.01q-.42.29-.93.28c-3.2-.1-10.89-1.94-13.79-.16q-.54.33-.92-.18l-1.56-2.14q-.41-.56-.93-.1-1.62 1.45-3.8 1.57-1.53.09-.49-1.03l3.66-3.93q.36-.38.87-.31l8.17 1.22q.42.07.83-.08l3.69-1.37q.7-.26 1.03.4l.74 1.45q.35.68 1.04.33l.72-.36q.89-.44.11-1.05l-1.54-1.21q-.36-.28-.03-.58l.22-.22q.42-.44.88-.04c5.12 4.51 16.78-.82 22.1 4.08q.48.44.96.01 2.14-1.88 4.65-.9.5.2 1.01 0l6.88-2.7q.48-.19.86.16l1.56 1.42q.69.63.88-.29l.37-1.79q.14-.62.77-.52l5.03.8q.62.1.82.69l.29.85q.21.61.86.58 2.02-.1 2.5-2.25.41-1.83.84-.01.27 1.17.13 2.35-.06.56.5.62c4.23.51 10.1 2.08 11.12-2.44a.46.46 0 0 1 .83-.16q.82 1.16-.12 2.09-.32.31.11.43l3.9 1.08q.41.12.8-.06l2.38-1.09q.48-.23.81.2l1.04 1.38q.44.57 1.09.27l4.23-1.97q.63-.3.39-.95l-.53-1.43q-.27-.73.5-.64 2.36.28 4.76.14 1.72-.09.17.65-1.16.55-2.38.4-1.62-.21-.27.71.87.59 1.91.37.54-.12 1.03.11 1.32.63.56 2.08-.25.49.24.73l8.37 4.07q.46.23.91-.02 1.16-.64 1.45-1.9.12-.54-.33-.88-1.22-.92-1.96-2.23-.53-.94.5-.6c4.6 1.52 11.71.53 9.69-6.35q-.14-.49-.59-.73c-4.02-2.2-8.59-5.38-12.81-6.57-4.61-1.31-9.28.18-13.85.26q-.68.01-.68.69v.71q0 .43-.42.52l-3.33.74" vector-effect="non-scaling-stroke"/><path stroke="#77a3be" d="M134.5 269.46q-.25-9.69.03-19.39c.24-8.23 2.18-18.01 2.03-27.35-.07-3.82 1-7.56.95-11.44q-.15-10.65-.27-21.29c-.05-4.85 1.12-10.49.93-15.89q-.01-.27-.27-.31l-.32-.04q-.59-.08-.6.52-.02 1.57-.64 3.04-.58 1.39-.41-.11c.81-6.89 2.04-13.92 2.27-20.64q.54-15.9.86-31.81c.15-7.16-1.65-12.59-10.08-10.95q-2.12.42-3.99.3-11.19-.7-22.39-.84c-1.48-.02-3.68-.58-5.38-.36q-2.64.35-3.89.21c-4.44-.52-16.58-1.67-20.29.48q-.44.26-.93.15c-8.22-1.83-15.83-.59-23.02-.44q-15.69.33-31.34-.59" vector-effect="non-scaling-stroke"/><path stroke="#e4cb90" d="m17.75 112.71-2.92-.21q-.46-.03-.55-.48-.31-1.57.67-2.7.3-.34.23-.79c-.19-1.07.26-8.33.26-8.34q-.34-.15-.4-.51c-.81-4.88-2.54-9.3-3.88-14.13q-.79-2.85-1.87-5.64-.54-1.38-.54.1v4.81q0 .99-.77.36l-1.13-.93Q6.54 84 6.14 84H5.01q-.6 0-.61.6-.03 1.11-.59 2.18-.37.69-.55-.07l-.61-2.5q-.38-1.56-1.01-.08Q.01 87.9 0 91.94" vector-effect="non-scaling-stroke"/><path stroke="#d0898c" d="M663.44 283.53q.03-.88.45-1.77a1.47 1.46-75.7 0 0-1.23-2.08l-8.48-.57a1.86 1.85 3 0 0-1.98 1.78c-.26 7.32 6.91 4.42 11 4.05q.49-.05.41-.53-.03-.14-.07-.27-.12-.3-.1-.61M495.55 301.81l-1.53 8.59q-.07.4.21.69.71.74.41 1.83-.07.27-.34.33-.15.03-.31.07-.3.08-.33.39-1.12 10.61-3.11 21.07c-.62 3.29-1.17 8.43 2.48 10.34q.44.23.92.15 7.53-1.2 6.38-9.26-.08-.55-.52-.89l-1.96-1.53q-.35-.28-.25-.72c1.03-4.56 2.78-9.12 3.37-13.73.45-3.56 1.79-7.23 2.2-10.26.92-6.76 3.93-18.11 1.76-24.42q-.38-1.1-.78 0l-.4 1.09q-.22.61-.65.12c-3.8-4.28-9.27 4.49-11.28 7.81q-2.95 4.89-5.43 7.96c-6.34 7.86-15.63 22.74-26.21 24.69a1.25 1.25 0 0 1-1.48-1.3c.61-11.46 1.04-22.98.49-34.41q-.02-.51-.54-.49c-2.28.14-4.14.32-5.81 2.1-4.68 4.99-7.25 10.29-10.47 15.85-4.59 7.95-11.67 16.12-15.68 22.82q-1.18 1.97-.18 5.38.13.45.59.54c4.57.91 9.59-3.46 11.39-6.41 4.27-6.97 8.45-16.14 14.37-21.68a.5.49 77.2 0 1 .81.51q-3.59 11.46.78 22.3c4.25 10.58 19.27-5.11 22.76-9.36q8.6-10.46 17.71-20.48.85-.93.63.31" vector-effect="non-scaling-stroke"/><path stroke="#e4cb90" d="M192.96 338.5c-1.65.86-3.22 3.61-.5 4.5" vector-effect="non-scaling-stroke"/><path stroke="#d0898c" d="M192.46 343c2.06 4.72 10.09-4.12 11.57-5.78q2.17-2.42 4.05-6.56c1.99-4.37 5.2-12.53 8.47-15.84a.58.58 0 0 1 .99.46c-.56 6.1-2.53 27.17 8.48 25.94 5.83-.65 11.93-8.36 15.94-14.11 1.12-1.61 2.11-4 3.76-5.78q2.76-2.99 3.33-3.83c3.07-4.48 6.39-11.37 11.53-13.62q.47-.21.69-.67c2.14-4.39 7.74-15.77-.49-17.56q-.59-.13-.93.38l-.33.5q-.46.69.37.72.16 0 .39-.01 1.71-.11-.26.61c-.66.24-1.54.76-1.85 1.43-6.45 13.93-19.06 37.82-32.11 44.19a1.22 1.22 0 0 1-1.68-.69c-2.14-5.96-.93-15.15.17-21.28q.34-1.89.04-4.49-.56-4.78 1.46-9.27c1.62-3.62-2.27-5.52-5.01-5.73q-.58-.04-.82.49c-2.93 6.65-5.52 12.73-9.66 19.14q-3.16 4.89-5.97 9.98c-2.16 3.91-5.46 7.34-7.68 11.57-1.13 2.16-2.43 3.55-3.95 5.31" vector-effect="non-scaling-stroke"/><path stroke="#ca6b34" d="m192.46 343 .5-4.5" vector-effect="non-scaling-stroke"/><path stroke="#d0898c" d="m516.45 335.17 2.4-2.71q.35-.4.87-.35c5.77.53 8.06-2.12 13.11-2.75 8.34-1.02 17.86-7.15 25.41-11.02 3.8-1.95 9.52-5.83 11.38-8.72 3.83-5.94 3.97-16.39-5.9-16q-1.25.05-1.49 1.3-.1.5-.6.57c-21 2.9-36.04 14.21-48.15 30.96q-.29.4-.78.35l-3.44-.35q-.66-.07-.57.59c.54 4.06 2.89 5.16 1.05 9.75q-.19.48-.01.97c1.03 2.74 2.15 5.01 5.19 5.98 16.82 5.33 37.88-5.06 51.61-14.47q2.89-1.98 2.96-5.46.01-.54-.5-.69c-5.68-1.62-9.17 4.34-14.43 5.51-2.95.66-6.02 2.69-8.57 4.28-4.04 2.52-8.52 3.63-12.9 5.26-6.56 2.46-10.62 3.24-16.31-.53q-1.59-1.05-.33-2.47M264.69 336.31c-.31-3.42 5.57-4.22 8.86-4.67 13.99-1.92 24.56-10.06 35.89-14.68q2.05-.84 6.81-5.67c5.51-5.59 6.74-19.01-4.75-17.31q-.42.06-.72.36l-.63.64q-.39.39-.94.48-30.23 5.29-46.96 30.87-.31.46-.86.43c-5.14-.33-5.25.33-2.85 4.64q.26.45.06.93c-3.51 8.53 2.43 11.78 9.79 12.59 16.42 1.82 34.3-7.18 47.39-16.37q2.74-1.92 1.48-5.21-.17-.47-.67-.45c-6.08.25-8.48 4.56-13.34 5.63q-3.2.7-4.56 1.67c-6.24 4.43-12.87 6.53-20.38 8.95q-3.83 1.24-6.13 1.04c-1.81-.15-7.27-1.35-7.49-3.87M600.23 311.78l-9.16-14.9q-.31-.51-.91-.52l-4.45-.08q-.81-.02-1.1.74-.94 2.43 1.3 3.47.51.24.59.81.1.76-.42.9-.58.16-.16.58c3.06 3.08 11.46 12.87 5.62 17.26-6.95 5.21-15.55 10.28-19.79 17.65a1.93 1.92 32.9 0 0 .55 2.52c9.13 6.55 16.81-4.13 20.53-11.01.73-1.35 2.39-2.68 3.66-2.99a2.59 2.58 74.4 0 1 3.06 1.73c1.61 5.13 2.26 15.29 9.42 14.85a1.74 1.73-5.8 0 0 1.61-1.97c-.34-2.44-.29-4.98-1.27-7.27q-2.54-5.89-4.35-12.11-.15-.5.12-.95 1.55-2.61 4.6-5.08 11.19-9.11 21.08-15.08.48-.29.6-.83.62-2.82-.76-5.28-.3-.54-.91-.5c-11.53.69-18.44 14.17-28.74 18.3q-.46.19-.72-.24" vector-effect="non-scaling-stroke"/><path stroke="#e4cb90" d="m394.54 295.5-.54.29" vector-effect="non-scaling-stroke"/><path stroke="#d0898c" d="M394 295.79q-.91-1.23-2.49-1.25-.53 0-.75.48-7.46 16.68-17.96 31.56c-2.82 4-6.44 7.02-10.42 9.48a.64.64 0 0 1-.96-.4q-.68-2.86-.01-5.62 2.63-10.89 4.5-21.95.09-.52.48-.87 2.44-2.13 2.38-5.44-.01-.54-.44-.87l-1.5-1.15q-.44-.34-.89-.02l-4.69 3.3" vector-effect="non-scaling-stroke"/><path stroke="#e4cb90" d="M361.25 303.04q-2.83 1.23-4.01 4.21" vector-effect="non-scaling-stroke"/><path stroke="#d0898c" d="M357.24 307.25q-2.25 3.65-5.32 6.65c-2.15 2.1-4.38 5.48-6.21 6.82q-6.85 5.02-13.53 9.87a.36.36 0 0 1-.55-.39c2.76-9.11 8.25-17.34 12.56-25.77q1.25-2.44.21-4.91-.26-.62.39-.79 1.21-.33 1.12-1.81a1.16 1.15-86.6 0 0-.95-1.08l-3.66-.63q-.63-.11-.73.51l-.29 1.78q-.1.6-.62.92c-3.47 2.12-2.19 5.79-4.15 7.12q-.47.32-.51-.24-.01-.14.03-.32.33-1.5-.7.31-2.88 5.05-4.34 10.69-.15.57-.69.81c-3.22 1.45-7 13.88-8.11 17.89q-1.5 5.43 2.68 7.66.46.25.97.16 3.33-.56 4.12-1.04c2.69-1.62 27.04-19.4 26.6-23.25q-.08-.68.61-.68l.65-.01q.65 0 .51.64-2.35 11.29-1.34 19.32c.68 5.37 6.02 8.29 10.55 4.74 11.29-8.86 16.93-19.36 26.02-33.93q2.96-4.75 4.59-10.05.15-.49-.02-.97c-.32-.9-.76-3.24-2.08-3.15q-.6.03-.56.64l.05.74" vector-effect="non-scaling-stroke"/><path stroke="#ca6b34" d="M357.24 307.25q3.91-.05 4.01-4.21M394 295.79q.69.74 1.58 1.08.69.26.37-.4-.37-.77-1.41-.97" vector-effect="non-scaling-stroke"/><path stroke="#d0898c" d="M641.18 333.76c5.02-10.3 9.98-21.98 17.05-31.01 1.81-2.31 2.13-6.13-1.49-7.11q-.46-.12-.84.17c-7.93 6.05-11.63 17.58-17.65 27.39q-1.88 3.06-3.23 6.42c-1.47 3.67-8.57 9.58-6.24 13.99 2.55 4.85 20.47-3.28 14.88-8.79q-.31-.3-.74-.31l-1.31-.04q-.77-.02-.43-.71M772.8 305.52a.27.27 0 0 1 .41.24c-.09 6.5-2.97 9.67-7.69 14.72-8.4 8.98-19.18 17.55-31.56 19.1a1.07 1.06-6.1 0 1-1.19-.95c-.98-10.25 22.08-30.22 30.41-36.72q2.19-1.71 1.89-5.16-.07-.76-.77-.48-1.13.46-1.76-.47-.34-.51-.92-.28c-13.46 5.57-18.21 14.71-26.84 25.27-1.87 2.28-3.25 5.68-4.55 7.6-3.22 4.75-7.6 11.24-.94 15.28 8.02 4.86 18.14-.17 25.15-4.6 4.72-2.99 9.28-7.94 13.82-11.95 4.9-4.33 8.56-8.85 10.8-14.31 1.83-4.45 1.26-12.7-3.75-15.05-6.25-2.94-11.36 7.2-16.12 10.19-2.79 1.74-2.01 4.77-4.46 6.77-3.24 2.65-8.44 8.42-6.42 12.93q.23.52.77.7l2.51.81q.53.18.93-.21 4.68-4.5 5.96-7.48 4.45-10.41 14.32-15.95M673.38 334.78a1.04 1.04 0 0 1-.18-1.46c6.93-8.79 16.19-15 25.68-20.18 5.7-3.11 17.68-2.56 19.86-9.3q.18-.56-.27-.94-.22-.18-.39-.07-.8.48-1.15-.39l-.45-1.15q-.21-.53-.76-.4-27.05 6.05-46.27 25.65c-2.21 2.25-6.81 10.69-2.01 12.45q.49.18.63.68.97 3.54 4.69 2.92 14.71-2.48 28.61-10.3c1.43-.8 3.15-.22 4.78-1.44q4.76-3.58 10.16-6.1c1.85-.86 4.4-3.69 6.22-3.81q4.74-.31 3.46-5.02-.13-.48-.63-.45c-3.29.19-12.89 2.02-14.82 4.95q-.28.42-.74.63c-10.61 4.78-19.22 9.96-31.66 13.15-1.32.34-3.16 1.84-4.76.58" vector-effect="non-scaling-stroke"/><path stroke="#827e7c" d="M1183.983 320.304a14.99 14.99 0 0 0-14.885-15.094l-2.76-.02a14.99 14.99 0 0 0-15.095 14.886l-.046 6.6a14.99 14.99 0 0 0 14.885 15.094l2.76.02a14.99 14.99 0 0 0 15.095-14.886l.046-6.6M849 310.85a.35.35 0 0 1 .35-.35h19.3a.35.35 0 0 0 .35-.35v-3.75a.35.35 0 0 0-.35-.35l-24.3-.28a.35.35 0 0 0-.35.35v34.54a.35.35 0 0 0 .35.35l24.8-.12a.35.35 0 0 0 .35-.35v-3.73a.35.35 0 0 0-.35-.35l-19.8.05a.35.35 0 0 1-.35-.35v-11.07a.35.35 0 0 1 .35-.35l17.8.04a.35.35 0 0 0 .35-.35v-3.61a.35.35 0 0 0-.35-.35l-17.8.1a.35.35 0 0 1-.35-.35v-9.37M881.87 326.37c8.23.12 19.93 1.45 19.37-11.11-.3-6.75-4.1-9-10.57-9.17q-6.93-.17-13.92-.32-.5-.01-.5.49v34.24q0 .5.5.5h3.97q.53 0 .53-.53v-13.49q0-.61.62-.61M909.56 330.78a.43.43 0 0 1 .4-.28h12.82a.43.43 0 0 1 .4.28l3.62 9.94a.43.43 0 0 0 .4.28h4.39a.43.43 0 0 0 .4-.58l-12.82-34.39a.43.43 0 0 0-.4-.28h-4.71a.43.43 0 0 0-.4.28l-12.69 34.39a.43.43 0 0 0 .41.58h4.13a.43.43 0 0 0 .4-.28l3.65-9.94M958.82 323.2q3.41-2.59 3.66-5.43 1.02-11.69-10.48-11.8-7.31-.07-14.71-.25-.54-.01-.54.53v34.25q0 .5.5.5h3.69q.68 0 .69-.68l.15-13.49q0-.6.61-.64c3.59-.19 14.05-1.49 14.35 3.63q.3 5.25.91 10.61.07.62.69.6l4.89-.1a.65.64-23.1 0 0 .45-1.1c-3.7-3.72.5-13.29-4.78-15.85q-.67-.33-.08-.78M982.75 310.51a.3.3 0 0 1 .3-.3l10.34.13a.3.3 0 0 0 .3-.29l.18-3.84a.3.3 0 0 0-.31-.32l-26.26.16a.3.3 0 0 0-.3.3v3.6a.3.3 0 0 0 .3.3h10.35a.3.3 0 0 1 .3.3l-.02 30.15a.3.3 0 0 0 .3.3h4.22a.3.3 0 0 0 .3-.3v-30.19M1003.5 313.86a.31.31 0 0 1 .6-.1l8.87 27.03a.31.31 0 0 0 .29.21h4.25a.31.31 0 0 0 .29-.21l9.1-27.45a.31.31 0 0 1 .6.1v27.11a.31.31 0 0 0 .31.31l4.13.06a.31.31 0 0 0 .31-.31l-.02-34.55a.31.31 0 0 0-.31-.31h-6.56a.31.31 0 0 0-.29.21l-9.35 27.98a.31.31 0 0 1-.59 0l-9.01-27.98a.31.31 0 0 0-.3-.21h-6.47a.31.31 0 0 0-.31.31l.15 34.63a.31.31 0 0 0 .31.31h3.69a.31.31 0 0 0 .31-.31v-26.83M1045.5 320.03V311q0-.5.5-.5h19.05q.48 0 .48-.49v-3.69q0-.4-.39-.39l-23.99.03q-.4 0-.4.39v34.06q0 .41.41.41l24.49-.09q.7-.01.51-.69-.42-1.46.07-2.92.21-.62-.45-.62H1046q-.5 0-.5-.5v-10.75q0-.51.5-.51l17.65.02q.6 0 .6-.6v-3.17q0-.52-.51-.51l-17.71.07q-.53 0-.53-.52M1095.46 332.88l-16.88-26.35q-.27-.42-.77-.47l-4.38-.36q-.68-.06-.68.62v33.93q0 .75.75.75h3.38q.62 0 .62-.62v-26.13q0-.74.4-.12l16.9 26.35q.33.52.95.52h4.25q.5 0 .5-.5v-34.05q0-.55-.55-.57l-3.21-.14q-.75-.03-.75.71l.01 26.27q0 1.02-.54.16M1105.76 310.03a.31.31 0 0 0 .31.31l10.35-.14a.31.31 0 0 1 .31.31l.07 30.05a.31.31 0 0 0 .3.31l4.08.08a.31.31 0 0 0 .32-.31v-30.13a.31.31 0 0 1 .31-.31l10.63.16a.31.31 0 0 0 .31-.31v-3.81a.31.31 0 0 0-.31-.31l-26.4.08a.31.31 0 0 0-.31.31l.03 3.71M1196 310.82a.32.32 0 0 1 .32-.32h17.8a.32.32 0 0 0 .32-.3l.19-3.92a.32.32 0 0 0-.32-.34l-22.99.07a.32.32 0 0 0-.32.32v34.33a.32.32 0 0 0 .32.32l4.43.03a.32.32 0 0 0 .32-.32l-.11-15.12a.32.32 0 0 1 .32-.32h15.9a.32.32 0 0 0 .32-.32v-3.86a.32.32 0 0 0-.32-.32h-15.86a.32.32 0 0 1-.32-.32v-9.61M808.44 306.4l.12 34.14a.46.46 0 0 0 .46.46l13.44-.05a15.02 14.56 89.8 0 0 14.51-15.07l-.02-5.02a15.02 14.56 89.8 0 0-14.61-14.97l-13.44.05a.46.46 0 0 0-.46.46" vector-effect="non-scaling-stroke"/><path stroke="#78bad0" d="M525.01 399.01c-9.59-2.75-6.57-14.33 2.02-16.53 8.67-2.23 19.95.44 21.35 10.79q.08.59.68.59l14.77.04q.53 0 .52-.52c-.53-22.29-22.36-27.81-40.32-24.31-12.5 2.44-20.8 9.34-21.09 22.53-.75 34.32 47.34 19.27 47.93 36.94.35 10.69-12.74 10.97-19.81 9.87-7.14-1.12-11.71-4.8-12.74-12.01q-.07-.46-.53-.46l-15.56.09q-.5 0-.47.5c.93 16.38 11.57 24.54 27.02 26.45 17.11 2.11 36.67-3.58 38.32-23.51 2.09-25.16-24.77-25.51-42.09-30.46M720.58 381.43c-11.54-14.19-35.27-17.15-50.76-8.08-17.83 10.44-21.88 33.68-16.87 52.42 5.98 22.33 28.42 31.58 49.84 25.73 28.89-7.87 34.99-48.9 17.79-70.07M1095.5 368.51q-22.95-.75-33.84 16.06c-13.56 20.95-8.07 59.38 19.02 66.78 22.23 6.07 44.87-2.49 50.83-26.3 6.76-27.06-4.59-55.5-36.01-56.54M192.5 384.68a.31.31 0 0 0 .31.31l23.38-.07a.31.31 0 0 1 .31.31l-.01 65.46a.31.31 0 0 0 .31.31h15.91a.31.31 0 0 0 .31-.31l-.03-65.63a.31.31 0 0 1 .31-.31h23.14a.31.31 0 0 0 .31-.31v-13.77a.31.31 0 0 0-.31-.31l-63.63.18a.31.31 0 0 0-.31.31v13.83M320.56 412.76a.41.4 42.9 0 1-.03-.73c8.94-4.62 11.57-13.17 10.48-22.72-1.75-15.43-13.44-18.91-26.76-18.85q-19 .1-37.92-.02-.33 0-.33.33v79.54q0 .55.56.56l15.67.17a.52.51-89.5 0 0 .52-.52v-30.28q0-.56.56-.58 5.09-.19 17.5.03c9.8.18 10.76 5.31 11.2 14.07.25 4.96.04 13.71 1.97 16.7q.26.4.73.4l17.24.01q.45 0 .54-.44c.22-1.17.01-1.68-.85-2.59-3.27-3.48-2.51-15.34-2.85-20.19-.48-7.07-1.81-12.05-8.23-14.89M360.35 434.73a.33.33 0 0 1 .31-.23h30.58a.33.33 0 0 1 .31.23l5.28 16.01a.33.33 0 0 0 .31.23l16.92.1a.33.33 0 0 0 .31-.44l-28.76-80.13a.33.33 0 0 0-.31-.22l-18.88.03a.33.33 0 0 0-.31.22l-28.4 80.06a.33.33 0 0 0 .31.44l16.99-.01a.33.33 0 0 0 .31-.23l5.03-16.06M439.18 397.5a.34.34 0 0 1 .63-.17l31.75 53.5a.34.34 0 0 0 .29.17h16.8a.34.34 0 0 0 .34-.34l.1-79.74a.34.34 0 0 0-.33-.34l-15.91-.31a.34.34 0 0 0-.35.34v53.33a.34.34 0 0 1-.63.17l-31.86-53.7a.34.34 0 0 0-.3-.17l-16.88.27a.34.34 0 0 0-.33.34v79.88a.34.34 0 0 0 .34.34l15.99-.1a.34.34 0 0 0 .34-.34l.01-53.13M596.75 422.77a.37.37 0 0 1 .39-.37c9.47.35 24.26 1.41 32.31-2.46 10.98-5.27 13.65-19.28 11.58-30.34-2.27-12.17-10.56-19.11-23.03-19.1q-17.97.01-37.68-.06-.57 0-.57.56v79.65q0 .39.4.39l16.11-.06q.49 0 .49-.49v-27.72M797.15 411.97c2.34-1.27 4.53-2.23 6.12-4.3 5.31-6.88 5.49-16.53 2.72-24.54-3.28-9.43-12.61-12.64-22-12.59q-20.2.11-40.49-.32-.75-.02-.75.74v79.55q0 .52.51.52l15.75-.04q.49-.01.49-.5v-30.22q0-.5.5-.51 7.63-.16 15.25-.25c10.39-.12 13.38 3.66 13.42 13.74q.04 7.57 1.28 16.18a1.84 1.84 0 0 0 1.83 1.58l16.75-.04a.97.97 0 0 0 .75-1.58c-2.19-2.7-2.98-5.42-3.12-9.11-.43-11.15 1.04-22.55-9-27.58q-.69-.35-.01-.73M838.92 384.73a.34.34 0 0 1 .34.34l-.02 65.65a.34.34 0 0 0 .34.34l16.09-.09a.34.34 0 0 0 .34-.34l-.02-65.39a.34.34 0 0 1 .34-.34l23.08-.2a.34.34 0 0 0 .34-.34v-13.63a.34.34 0 0 0-.34-.34l-63.65.09a.34.34 0 0 0-.34.34l.12 13.62a.34.34 0 0 0 .34.34l23.04-.05M899.36 434.74a.34.34 0 0 1 .33-.24h30.35a.34.34 0 0 1 .32.23l5.47 16.02a.34.34 0 0 0 .32.23l16.9.06a.34.34 0 0 0 .32-.46l-28.86-79.91a.34.34 0 0 0-.32-.23l-18.82.09a.34.34 0 0 0-.32.22l-28.42 79.73a.34.34 0 0 0 .32.45l16.96.1a.34.34 0 0 0 .33-.24l5.12-16.05M990.75 385.24a.34.34 0 0 1 .34-.34l23.07-.21a.34.34 0 0 0 .34-.34V370.9a.34.34 0 0 0-.34-.34l-63.87-.22a.34.34 0 0 0-.34.35l.37 13.76a.34.34 0 0 0 .34.33l23-.05a.34.34 0 0 1 .34.34l-.01 65.62a.34.34 0 0 0 .34.34l16.08-.05a.34.34 0 0 0 .34-.34v-65.4M1025.01 451.01c3.88-.21 10.49-.87 16.07.11q.2.03.21-.18c.04-.65-.29-1.14-.29-1.77q.01-39.1 0-78.2 0-.58-.58-.57l-15.42.04q-.51 0-.51.5l.01 79.58q0 .52.51.49M1162.75 397.37a.32.32 0 0 1 .59-.16l32.05 53.63a.32.32 0 0 0 .27.16h16.6a.32.32 0 0 0 .32-.32l.07-80.04a.32.32 0 0 0-.32-.32l-15.79.19a.32.32 0 0 0-.32.32l.06 53.4a.32.32 0 0 1-.6.16l-31.79-53.71a.32.32 0 0 0-.27-.16l-16.8-.06a.32.32 0 0 0-.32.32l-.16 79.9a.32.32 0 0 0 .32.32h15.77a.32.32 0 0 0 .32-.32v-53.31" vector-effect="non-scaling-stroke"/><path stroke="#827e7c" d="M701.03 501.21a10.08 8.54 90.4 0 0 8.61-10.02 10.08 8.54 90.4 0 0-8.47-10.14 10.08 8.54 90.4 0 0-8.61 10.02 10.08 8.54 90.4 0 0 8.47 10.14M926.515 501.25a10.12 8.56 89.8 0 0 8.525-10.15 10.12 8.56 89.8 0 0-8.595-10.09 10.12 8.56 89.8 0 0-8.525 10.15 10.12 8.56 89.8 0 0 8.595 10.09M1147.023 501.22a10.08 8.51 89.7 0 0 8.457-10.125 10.08 8.51 89.7 0 0-8.563-10.035 10.08 8.51 89.7 0 0-8.457 10.125 10.08 8.51 89.7 0 0 8.563 10.035M674.8 484.73a.23.23 0 0 1 .45.09v15.24q0 .32.23.54l.4.4q.37.37.37-.15v-18.37a.87.86 55.4 0 0-1.67-.31l-6.09 16.29a.35.35 0 0 1-.65 0l-6.1-16.43a.91.9-55.3 0 0-1.75.32c0 2.26-.51 17.49.39 18.58a.34.34 0 0 0 .61-.22l.03-16.16a.27.27 0 0 1 .52-.1l6.02 15.96a.44.44 0 0 0 .68.21c1.63-1.18 5.46-13.21 6.56-15.89M736.11 490.27c1.08-1.01 1.94-1.89 2.09-3.4.63-6.42-7.92-5.2-11.69-5.11q-.51.01-.51.52v17.69q0 .47.47.49c3.24.13 9.07.77 11.43-1.55 2.19-2.13 1.59-6.75-1.67-7.99q-.59-.22-.12-.65M756.34 482.02a.39.39 0 0 0-.39-.39h-.14a.39.39 0 0 0-.39.39v18.38a.39.39 0 0 0 .39.39h.14a.39.39 0 0 0 .39-.39v-18.38" vector-effect="non-scaling-stroke"/><path stroke="#77a3be" d="M775.12 499.16c-.13-2.63.43-16.28-.57-17.48a.45.45 0 0 0-.8.29v17.79a1.1 1.1 0 0 0 1.19 1.1c1.1-.1 9.76-.27 9.8-.58q.07-.53-.47-.53h-8.53q-.59 0-.62-.59" vector-effect="non-scaling-stroke"/><path stroke="#827e7c" d="M849.85 490.52c-1.19-1.7-4.71-8.4-6.27-8.98a.32.32 0 0 0-.38.46l5.97 9.92q.29.48.3 1.04l.08 8.02q.01.86.64.27c.61-.58.24-5.18.33-6.67q.14-2.25 1.41-4.35c.61-1 5.31-7.98 4.57-8.62q-.46-.39-.77.13l-5.25 8.76q-.3.51-.63.02M1117.46 490.47c-.72-.99-5.43-9.01-6.13-8.67q-.52.26-.21.76l5.85 9.31q.27.44.27.95c.01 1.3-.35 7.65.61 8.14q.4.21.4-.24v-7.76q0-.51.26-.95c.72-1.25 6.47-9.86 5.69-10.41q-.46-.34-.76.15l-5.21 8.68q-.36.6-.77.04" vector-effect="non-scaling-stroke"/><path stroke="#77a3be" d="M801.504 482.032a.27.27 0 0 0-.27-.271l-.42-.002a.27.27 0 0 0-.27.27l-.068 19.28a.27.27 0 0 0 .27.27l.42.002a.27.27 0 0 0 .27-.27l.068-19.28" vector-effect="non-scaling-stroke"/><path stroke="#827e7c" d="M824.83 482.75H830q.17 0 .19-.06.04-.14.08-.26.08-.21-.15-.24c-2.01-.23-13.34-.96-13.53.11q-.08.45.38.45h4.74a1.23 1.22-.2 0 1 1.23 1.21l.2 16.52q0 .15.15.2.14.05.28.09.11.04.11-.08l.47-17.28q.02-.66.68-.66M893.89 482.72l9.02.1q.41 0 .32-.4c-.24-1.11-9.22-.67-10.6-.62q-.54.01-.56.56c-.07 2.06-.46 18.18.63 18.69q.39.18.39-.24l-.01-9.01q0-.55.56-.55h8.45q.28 0 .28-.28l.01-.32q0-.32-.32-.34l-8.23-.37q-.58-.03-.58-.61v-5.97q0-.65.64-.64M953.1 491.82q3.61-.33 7.24.34c4.26.79.81 7.49 3.49 8.77a.21.21 0 0 0 .3-.21l-.79-7.05q-.07-.58-.42-1.05l-.85-1.12q-.3-.4.08-.73 4.2-3.75.38-8.3-.37-.44-.95-.46l-9.68-.37q-.69-.02-.67.66c.11 6.09-.39 18.08.48 18.93q.65.63.67-.28l.18-8.54q.01-.54.54-.59M1002.38 482.75h9.91q.8 0 .17-.49c-1.27-1.01-10.74-.52-11.2-.51q-.51 0-.51.51v17.73q0 .56.56.58c1.31.06 11.33.62 11.39-.29q.03-.53-.5-.53h-9.83q-.62 0-.62-.63v-7.18q0-.58.58-.61c.97-.04 9.3.06 9.41-.53q.1-.55-.46-.55h-8.9q-.63 0-.63-.63v-6.25q0-.62.63-.62M1033.14 498.02c-.63-1.67-5.33-16.49-6.15-16.27q-.56.15-.37.69l6.22 17.86a.63.63 0 0 0 1.19 0l6.35-18.07q.17-.5-.35-.48h-.31q-.39 0-.52.38l-5.38 15.88q-.32.95-.68.01M1056.84 489.68l-.32-6.28q-.03-.58.55-.6c1.16-.03 10 .2 10.14-.47q.12-.58-.47-.58h-10.65q-.42 0-.41.41l.1 18.11q.01.48.49.47l10.94-.14q.16 0 .22-.14.05-.14.09-.3.11-.41-.31-.41h-10.2q-.48 0-.48-.49l.14-7.47q0-.54.54-.54h8.79q.22 0 .33-.18l.2-.34q.28-.48-.28-.48h-8.82q-.57 0-.59-.57M1085.06 491.85c2.16-.28 8.93-.57 9.24 1.89.13.98.56 7.34 1.52 7.22q.38-.05.34-.43l-.82-6.94q-.06-.53-.37-.95l-.8-1.12q-.35-.48.14-.8c2.71-1.79 2.69-6.59.08-8.16-2.21-1.32-7.46-.85-10.36-.79q-.51.01-.52.52c-.01 1.86-.26 18.48.36 18.67q.62.19.62-.46l.01-8.01q0-.57.56-.64M1184.4 497.76a.27.27 0 0 1-.49.15l-11.61-17.25a.27.27 0 0 0-.49.15l.02 19.61a.27.27 0 0 0 .18.25l.63.21a.27.27 0 0 0 .36-.25V484.6a.27.27 0 0 1 .49-.15l11.6 17a.27.27 0 0 0 .5-.15l.13-19.28a.27.27 0 0 0-.27-.27h-.77a.27.27 0 0 0-.27.27l-.01 15.74M1204.29 482.85c1.25-.19 10.23-.3 10.27-.35a.48.48 0 0 0-.38-.77l-10.83.07q-.6 0-.6.6V500q0 .52.52.51c1.2-.02 11.4.24 11.53-.23q.15-.53-.4-.53h-10.15q-.5 0-.5-.5v-7.5q0-.5.5-.5h9.1q.68 0 .34-.59c-.39-.68-8.19-.41-9.44-.42q-.5-.01-.5-.5v-6.26q0-.55.54-.63" vector-effect="non-scaling-stroke"/><path stroke="#718566" d="m17.75 112.71-1.91.05q-.48.01-.65.47-.65 1.8-.98 3.67c-.53 2.97 1 5.26-.51 8.63q-.19.43-.14.89.75 6.66-.15 13.33-.07.56-.57.28l-1.61-.89q-.48-.27-.77.2l-.15.26q-.24.39.05.75l1.53 1.9q.37.46.08.98-2.48 4.37-.9 9.11c.84 2.52-.14 4.58.56 7.17q1.03 3.82 1.98 7.72.37 1.5-.39.54-.47-.59-1.13-.47-.71.12-.27.69l2.02 2.61q.33.42.22.95c-.69 3.61-2.19 7.06-2.17 10.7q.03 7.36-.1 14.73-.01.47.46.51l.6.04q.74.06.29.64c-3.15 4.06.43 6.21-.11 9.58q-1.77 11.03-.52 22.15.06.6-.54.6h-.45q-.52 0-.35.49.89 2.55.53 5.26-.07.56.46.76l5.3 2.02q.44.17.61.62l.4 1.07q.25.66.9.38c1.78-.77-.99-3.18.49-5.18q.29-.39.34-.88c.64-5.76-4.5-11.42-1-16.34q.37-.52.06-1.08l-1.03-1.87q-.25-.44-.04-.91 2.32-5.19 1.65-10.77c-.3-2.5.52-4.62-.13-7.22q-.12-.5.23-.87c3.5-3.74.35-11.23-.07-15.69q-.05-.55-.4-.96-1.22-1.47-1.23-3.42 0-.63.58-.39c.52.22 1.76 3.75 2.5 4.65q.37.45.77.03c.68-.71-.8-3.35-1.17-4.14q-.18-.39-.01-.79c.33-.75.73-.39 1.12.04q1.58 1.77 4.05 1.3.6-.11.25-.61l-.76-1.11q-.29-.43.11-.76l1.32-1.07q.32-.26.61.03l.94.95q.57.57.73-.23.28-1.41 1.51-2.09.71-.39 1.04.36l1.9 4.25q.25.57-.26.92l-1.14.78q-.59.41-.28 1.06l2.29 4.78q.23.49.16 1.02-.37 2.79-1.59 5.34-.24.49-.11 1.02c.33 1.35 2.3 5.25.84 6.35q-.45.33-.98.16l-1.19-.39q-1.26-.42-.49.66.51.71 1.39.96.76.21.17.74-2.39 2.13-2.53 5.43-.04.73.6.37l1.09-.62q.6-.35.46.34l-.48 2.36q-.12.58.36.92 2.39 1.72.96 3.84-.54.8.42.9.59.06.94.63.31.51.05 1.03l-1 2.01q-.24.48-.23 1.02.04 2.45-1.62 4.17-.37.39-.1.86c.83 1.41 2.6 3.54.81 5.01q-.32.27-.63-.02l-1.12-1.06q-.69-.65-.77.29-.11 1.24.61 2.25.32.45.86.3l1.08-.32q.63-.19.42.44-.57 1.67.53 3.01.31.37.27.86-.35 4.3-2.35 8.07-.35.67.41.7 1.36.07 2.13-1.07.31-.47.83-.25c8.31 3.67 14.23-3.47 21.96.28q.45.22.89-.04l1.92-1.13q.77-.46.7.44l-.06.83q-.05.61.56.53c5.28-.78 11.66.18 15.81.42q5.23.31 10.3 1.7c1.79.49 4.05-.15 4.57 2.71q.17.91.64.12l.2-.33q.27-.46.75-.22 1.79.9 2.53-.73.32-.72.96-.26l10.28 7.45q.33.25.26.65l-.75 3.99q-.12.64.53.64h.43q.51 0 .76.44c1.4 2.41-2.72 3.26-4.48 3.28q-.5 0-.86-.34c-1.74-1.61-3.74-1.3-5.3-1.79q-5.06-1.59-10.07-3.31-.45-.15-.85.1c-.68.44-.89.7-1.76.76-5.67.35-15.55 2.72-20.45-.21q-.43-.26-.92-.19-6.56.85-13.11 1.96-.56.09-1.28-.8-.37-.47-.87-.14-2.8 1.81-6.12 1.47-1.13-.12-.41.77 2.12 2.63 2.98 5.89.16.6.77.52l1.44-.19q1.32-.17.08-.64-.82-.32-1.41-.97-.7-.79.34-.6c6.96 1.21 12.19 3.05 19.2.37 3.9-1.5 10-.52 14.36-.9q.54-.04.91.35l1 1.06q.31.32.73.16l4.45-1.68q.64-.24.61.44l-.05.93q-.02.5.48.47 7.16-.47 14.28.53c4.83.68 9.29-.51 14.34.1q7.04.85 14.13 1.15 2.72.12 2.96 2.5.06.57.64.52.71-.06.96-.8M139 299.29q-1.67-.01-2.72 1.32-.36.45-.92.41-1.24-.07-1.4-1.36-.07-.48-.55-.45-.33.03-.45.29" vector-effect="non-scaling-stroke"/><path stroke="#ca6b34" d="M132.96 299.5q-1.08.94-2.5 1.18-.49.08-.82-.29-2.66-2.97-6.08-1.55-.49.2-1.02.16l-7.04-.6q-.48-.04-.32-.49l.61-1.68q.41-1.15-.76-.82-1.79.51-2.23 2.38-.24 1.02-.89.2-.63-.79-.78-1.81-.06-.46-.52-.51l-5.44-.68q-.67-.09-.67.59v1.1q0 .88-.76.43l-1.76-1.03q-.53-.31-1.11-.08l-5.91 2.37q-.52.21-1.04 0l-1.45-.6q-.48-.2-.87.13-2.22 1.86-4.8.79-5.89-2.45-11.5-1.02-.51.13-1-.06-2.98-1.17-5.69.75-.43.31-.79-.08-2.74-2.96-5.66-.05-.4.39-.95.26-7.29-1.79-14.81-1.56-.62.02-.82.61l-.93 2.8q-.21.6.42.71c2.43.45 4.57-.42 6.63 1.18q.42.33.9.09l2.22-1.1q.57-.29.79.31l.45 1.24q.23.62.8.29l1.52-.9q.51-.29 1 .02 2.95 1.86 6.24.56.51-.2 1.02.01 3.69 1.58 7.32-.21.41-.21.81.03 5.14 3.07 11.16 2.55a.85.84 5.1 0 1 .89 1.06q-.35 1.31.32 2.24.53.73.93-.08l.94-1.85q.36-.71.87-.11l.76.88q.65.75.71-.24.03-.54-.31-.98-.27-.35-.03-.72c1.28-1.97 8.13 4.76 11.11 1.19q.6-.72.57.22l-.04 1q-.03.97.89.68c.82-.26 4.98-2.18 4.98-.64q0 .55-.48.8l-.82.45q-.45.24-.31.72l.54 1.94q.13.47-.28.75l-2.43 1.67q-.94.65.19.86l1.98.38q.54.1.56.64l.04.68q.03.63-.53.91l-7.25 3.67a.46.46 0 0 1-.52-.75q.63-.58 1.52-.78.07-.02.02-.07-.09-.12-.19-.18-.52-.34-.55-.34l-10.47.84q-.45.04-.5-.42l-.12-1.24q-.09-.87-.81-.37-2.51 1.75-4.42-.3-.32-.35-.74-.12l-1.49.8q-.45.24-.97.23c-6.29-.2-14.73 2.97-21.34-.46q-.46-.24-.96-.12-6.67 1.47-13.48 1.65c-2.92.08-5.49.95-8.55.92q-1.01-.01-.3.71 1.85 1.89.58 4.25-.25.47-.22 1.01c.31 4.52 1.55 7.94 2.79 12.24.8 2.76-2.94 4.35-.11 6.94q.5.45.05.95l-.74.81q-.34.39-.34.92.06 5.97-.35 11.91c-.2 2.91 1.55 3.31-.21 6.53q-1.55 2.83-.78 7.01.11.6-.32 1.03l-1.91 1.95q-.31.32.01.64l.97.98q.31.31.16.71l-.39 1.04q-.24.64.42.45l1.26-.38q1.22-.36.63.76-1.72 3.29-2.23 6.99-.11.8-.71.26l-.76-.68a.29.29 0 0 0-.45.35q.98 1.78.5 3.8-.11.5-.62.43l-4.01-.54q-.54-.08-.89.35l-.97 1.19a1.32 1.32 0 0 1-2.13-.11c-.52-.79-3.21-4.36-2.78-5.02q.28-.43.74-.22c1.52.65 2.32-1.15 1.95-2.28q-.35-1.04-.84-.06l-.66 1.28q-.3.6-.49-.04c-.11-.38 2.09-6.61 2.24-8.04q.04-.41-.28-.68l-2.35-1.99q-.59-.51.03-.99 1.81-1.38.89-3.21-.22-.44-.21-.94l.11-4.25q.01-.48.25-.89 2.5-4.19-.51-8.13-.42-.56.15-.94l1.2-.82a.99.98 60.6 0 0 .34-1.24c-3.25-6.85-2.17-14.05-2.7-21.64q-.07-.97 1.33-2.49.39-.43-.1-.75-2.05-1.34-.3-3.46a1.12 1.12 0 0 0-.88-1.84c-7.09.14-5.9 6.81-6.01 11.57q-.01.53-.38.91-2.27 2.3-.29 5.11.38.54-.18.87-2.67 1.57-.92 4.17.31.46.33 1.01c.11 4.58-1.58 9.22-.96 13.52.79 5.51 4.57 19.95 1.1 24.86q-.28.41-.15.89l1.5 5.47a.52.52 0 0 1-.7.62l-.97-.42a.54.54 0 0 0-.71.69c1.53 3.83.73 6.09.47 9.9q-.59 8.72-.31 17.42c.26 8.02-2.02 16.41-2.43 24.57" vector-effect="non-scaling-stroke"/><path stroke="#718566" d="m11.61 445.55-.73-.56q-.62-.48-.82.28-.27.96.36 1.62.45.46.38 1.1l-.33 3.25a.33.33 0 0 0 .5.32l1.3-.78q1.28-.76.85.67-.68 2.23.27 4.35" vector-effect="non-scaling-stroke"/><path stroke="#e3ca8a" d="M0 434.69.21 426" vector-effect="non-scaling-stroke"/><path stroke="#e4cb90" d="M.21 426q-.01-1.48 1.44-2 .51-.18.27-.67l-1-2q-.25-.51.14-.93 1.91-2.02 1.39-4.64c-.75-3.82-.57-7.47-1.29-10.96Q.13 399.81 0 394.69M0 390.69l1.88-13.89q.06-.45-.16-.86-1.81-3.27-.79-6.78.12-.43-.04-.83-.85-2.08 0-4.09.19-.45.1-.93-1.21-6.39-.09-12.76.69-3.96.48-6.18c-.25-2.54-1.56-6.28-1.06-8.67q.15-.73.8-.36l.74.43q.8.46.68-.46-.16-1.3-1.28-1.92-.48-.27-.56-.8l-.7-4.65M0 324.8q20.43-4.61 32.27-21.79c6.37-9.25 5.51-18.49 2.24-28.94q-.15-.47.02-.93 1.37-3.78-1.02-6.96-.33-.45-.85-.66-2.56-1.06-2.3-3.73.05-.57-.34-.99c-5.73-6.22-11.33-8.9-16.64-13.56q-.39-.35-.89-.52-1.46-.51-1.98-2.04-.16-.47-.65-.5-5.2-.29-9.86-2.49M0 143.69q.39-9.3.87-18.6c.2-3.85-.48-8.27-.51-12.35" vector-effect="non-scaling-stroke"/><path stroke="#e3ca8a" d="M.36 112.74 0 108.19" vector-effect="non-scaling-stroke"/><path stroke="#718566" d="M11.227 127.963a1.81.9 106.8 0 0 1.385-1.473 1.81.9 106.8 0 0-.339-1.993 1.81.9 106.8 0 0-1.385 1.473 1.81.9 106.8 0 0 .339 1.993M21.19 184.29l1.25 2.57a.64.64 0 0 0 1.22-.3q-.06-2-1.93-2.83-1.03-.46-.54.56M32.05 189.82c-.98-.84-2.19.12-1.76 1.21q.21.52.7.24l.98-.58q.65-.38.08-.87" vector-effect="non-scaling-stroke"/><path stroke="#e9e8e2" d="M.36 112.74q-.26-.02-.36-.05" vector-effect="non-scaling-stroke"/><path stroke="#77a3be" d="M92.198 118.028a.64.51 74.8 0 0 .324-.752.64.51 74.8 0 0-.66-.484.64.51 74.8 0 0-.324.752.64.51 74.8 0 0 .66.484M135.819 136.94a6.28.63 89.1 0 0 .53-6.29 6.28.63 89.1 0 0-.728-6.27 6.28.63 89.1 0 0-.53 6.29 6.28.63 89.1 0 0 .728 6.27" vector-effect="non-scaling-stroke"/><path stroke="#77a3be" d="M134.608 145.62a2.96.41 91 0 0 .462-2.953 2.96.41 91 0 0-.358-2.966 2.96.41 91 0 0-.462 2.952 2.96.41 91 0 0 .358 2.966M134.96 182.12q.48-.89.15-1.94-.3-.96-.58.01-.48 1.63-.23 3.37.08.61.52.17.35-.37.12-.85-.18-.38.02-.76M135.011 188.384a.35.35 0 0 0-.346-.354h-.02a.35.35 0 0 0-.354.346l-.082 7.9a.35.35 0 0 0 .346.354h.02a.35.35 0 0 0 .354-.346l.082-7.9M135.16 203.27l-.93 12.63a.06.06 0 0 0 .05.06l.04.01a6.27 1.36-85.8 0 0 1.82-6.16l.02-.24a6.27 1.36-85.8 0 0-.9-6.35h-.04a.06.06 0 0 0-.06.05" vector-effect="non-scaling-stroke"/><path stroke="#d0898c" d="M524.96 323.61q5.03-.53 10-1.39c3.55-.61 6.18-2.59 9.44-4.04 4.8-2.12 13.33-6.38 16.22-10.49q1.91-2.72 4.61-4.83a1.55 1.55 0 0 0-.91-2.77c-6.2-.16-13.89 1.35-19.47 4.2-7.55 3.87-20.36 12.37-23.03 20.84q-.2.62.46.62h1.83q.83 0 .58-.79l-.2-.63q-.2-.65.47-.72M274.01 323.83q4.14-.81 8.31-1.41c3.99-.58 6.66-2.17 9.94-4.14 1.74-1.04 3.81-.96 5.53-2.22 3-2.22 4.8-3.2 7.39-4.8 2.85-1.77 4.3-4.55 6.96-6.77q.36-.3.36-.77v-3.66q0-.56-.56-.51-26.66 2.63-41.86 24.41-1 1.42.73 1.55 1.6.12 2.35-1.1.3-.48.85-.58" vector-effect="non-scaling-stroke"/><path stroke="#5c4362" d="M132.96 299.5c-1.45 3.11-2.87 5.99-.27 8.47q.33.32.4.78l.61 3.89q.08.48.31.9.86 1.53.19 3.21-.2.49-.18 1.03.16 3.43-.71 8.97-.94 5.9-.77 19.24.08 6.06 1.59 11.91c.75 2.94-.14 6.62-.14 9.68q-.02 8.77-1.2 19.41-.27 2.43.96 5.05" vector-effect="non-scaling-stroke"/><path stroke="#d0898c" d="m133.75 392.04.04 1.71" vector-effect="non-scaling-stroke"/><path stroke="#5c4362" d="M133.79 393.75c-.18 2.29-1.53 6.56.82 6.49" vector-effect="non-scaling-stroke"/><path stroke="#d0898c" d="M134.61 400.24q-1.73 5.17-.69 10.53" vector-effect="non-scaling-stroke"/><path stroke="#5c4362" d="M133.92 410.77q-.12 3.11.77 6.28M121 448.46c1.19-1.56.32-3.11 2.14-4.37q.37-.26.33-.71c-.33-3.61-25.52.83-29.05 1.36-1.83.27-2.48 1.24-4.49 1.07q-4.97-.41-9.75 1.1c-.79.25-2.02-.5-3-.56-9.65-.57-21.48.85-28.47.94-2.54.04-14.23.79-16.32-.72q-.41-.3-.92-.35-10.05-.93-19.86-.67" vector-effect="non-scaling-stroke"/><path stroke="#ca6b34" d="M15.99 361.35q.15-2.7-.96-3.34-.71-.41-.61.4.2 1.59.72 3.06.73 2 .85-.12" vector-effect="non-scaling-stroke"/><path stroke="#77a3be" d="M133.92 410.77q1.69-5.3.69-10.53M133.79 393.75c2.09-4.08 3.45-9.79 2.17-13.84a.49.49 0 0 0-.95.14q-.1 6.16-1.26 11.99M136.243 353.783a1.29.39 96.1 0 0 .525-1.242 1.29.39 96.1 0 0-.25-1.324 1.29.39 96.1 0 0-.526 1.242 1.29.39 96.1 0 0 .25 1.324" vector-effect="non-scaling-stroke"/><path stroke="#827e7c" d="M1167.49 337.82a14.33 11.68 90.2 0 0 11.73-14.29 14.33 11.68 90.2 0 0-11.63-14.37 14.33 11.68 90.2 0 0-11.73 14.29 14.33 11.68 90.2 0 0 11.63 14.37M881.17 311.16l.04 9.94a.69.69 0 0 0 .69.68l9.02-.03a5.37 5.04-.2 0 0 5.35-5.06v-1.24a5.37 5.04-.2 0 0-5.39-5.02l-9.02.03a.69.69 0 0 0-.69.7" vector-effect="non-scaling-stroke"/><path stroke="#817d76" d="M911.4 325.8a.34.34 0 0 0 .32.45h9.4a.34.34 0 0 0 .32-.45l-4.7-13.58a.34.34 0 0 0-.64 0l-4.7 13.58" vector-effect="non-scaling-stroke"/><path stroke="#827e7c" d="m941.73 310.54.04 10.94a.26.26 0 0 0 .26.26l9.73-.04a5.77 5.4-.2 0 0 5.75-5.42v-.66a5.77 5.4-.2 0 0-5.79-5.38l-9.73.04a.26.26 0 0 0-.26.26M813.46 310.66v25.46a.43.43 0 0 0 .43.43h7.68a10.68 10.19 90 0 0 10.19-10.68v-4.96a10.68 10.19 90 0 0-10.19-10.68h-7.68a.43.43 0 0 0-.43.43" vector-effect="non-scaling-stroke"/><path stroke="#78bad0" d="M670.49 396.73c-5.4 14.51-2.78 38.07 15.46 41.47 11.88 2.22 21.94-3.92 25.2-15.75 3.85-13.96 1.65-34.61-14.83-38.65-11.31-2.78-21.63 1.66-25.83 12.93M1113.55 425.81c4.67-10.93 4.14-29.81-5.67-38.06-7.81-6.56-21.33-6.1-28.42.67-10.97 10.47-10.69 38.09 2.34 46.77 11.02 7.34 26.46 3.03 31.75-9.38M282.73 385.27l-.04 19.42a.81.81 0 0 0 .81.81l20.36.04a10.39 9.63.1 0 0 10.41-9.61v-1.78a10.39 9.63.1 0 0-10.37-9.65l-20.36-.04a.81.81 0 0 0-.81.81M364.96 420.36a.3.3 0 0 0 .29.39h21.28a.3.3 0 0 0 .29-.39l-10.65-32.34a.3.3 0 0 0-.56 0l-10.65 32.34M596.7 385.15l.08 21.96a.49.49 0 0 0 .49.49l17.04-.06A10.73 10.2-.2 0 0 625 397.3v-2.54a10.73 10.2-.2 0 0-10.77-10.16l-17.04.06a.49.49 0 0 0-.49.49M759.45 385.41l-.04 19.34a1 1 0 0 0 1 1l19.98.04a10.6 10.03.1 0 0 10.62-10.01v-1.28a10.6 10.03.1 0 0-10.58-10.05l-19.98-.04a1 1 0 0 0-1 1M904.1 419.95a.61.61 0 0 0 .58.8h20.36a.61.61 0 0 0 .58-.8l-10.18-31.2a.61.61 0 0 0-1.16 0l-10.18 31.2" vector-effect="non-scaling-stroke"/><path stroke="#e9e8e2" d="M.21 426q-.11-.03-.21-.06" vector-effect="non-scaling-stroke"/><path stroke="#827e7c" d="M701.152 500.2a9.04 7.35 89.8 0 0 7.318-9.066 9.04 7.35 89.8 0 0-7.382-9.014 9.04 7.35 89.8 0 0-7.318 9.066 9.04 7.35 89.8 0 0 7.382 9.014M926.504 500.17a9.03 7.42 90.1 0 0 7.436-9.017 9.03 7.42 90.1 0 0-7.404-9.043 9.03 7.42 90.1 0 0-7.436 9.017 9.03 7.42 90.1 0 0 7.404 9.043M1146.893 500.18a9.03 7.42 90.3 0 0 7.467-8.991 9.03 7.42 90.3 0 0-7.373-9.069 9.03 7.42 90.3 0 0-7.467 8.991 9.03 7.42 90.3 0 0 7.373 9.069M726.97 483.28l.06 6.48a.74.74 0 0 0 .74.74l3.64-.03a5.86 3.88-.5 0 0 5.83-3.93v-.2a5.86 3.88-.5 0 0-5.89-3.83l-3.64.03a.74.74 0 0 0-.74.74M727.03 491.92l-.02 7.12a.68.68 0 0 0 .68.68l5.99.01a4.31 3.83.1 0 0 4.32-3.82v-.82a4.31 3.83.1 0 0-4.3-3.84l-5.99-.01a.68.68 0 0 0-.68.68M952.47 483.36l-.02 6.96a.66.66 0 0 0 .66.66l5.58.02a4.32 3.81.2 0 0 4.33-3.79v-.66a4.32 3.81.2 0 0-4.31-3.83l-5.58-.02a.66.66 0 0 0-.66.66M1084.49 483.32l.02 6.96a.61.61 0 0 0 .61.61l5.72-.02a4.37 4.01-.2 0 0 4.36-4.03v-.16a4.37 4.01-.2 0 0-4.38-3.99l-5.72.02a.61.61 0 0 0-.61.61" vector-effect="non-scaling-stroke"/></g><path fill="#eae4cd" d="M0 0h1280v2.31l-.17 16.81a1.26 1.26 0 0 1-1.39 1.24c-4.87-.48-10.36-.28-14.73-.28q-485.7.02-971.4-.09c-72.68-.02-145.44.66-218.11.06q-37.1-.31-74.2.39V0Z"/><path fill="#e8e7dc" d="M1280 2.31v45.5q-3.55 10.17-14.48 10.42-1.55.04-4.78 1.45-.47.21-.98.11-3.35-.63-6.37.96-.45.24-.94.13c-3.2-.73-6.28.54-8.8.54q-133.23.15-266.46.13l-640-.06q-40.15-.01-62.2-.37c-16.7-.27-33.57.57-50.39.44q-.6-.01-.6-.61v-.44q0-.56-.41-.18c-.6.54-1.27.99-2.12.98-13.28-.24-26.47.26-39.75.28-4.29.01-9.34-.03-13.31-.29-14.22-.95-26.37 1.47-42.47 2.26-2.14.1-4.28-.39-6.5-.4q-2.33-.01-4.81-.43c-3.01-.5-5.57 0-8.68-.77-2.95-.74-5.98-.45-9.11-.92q-2.54-.38-5.13.05-.5.09-.98-.1-2.54-.98-3.74-.79c-3.8.64-6.86-1.04-10.48-.26q-1.87.4-3.46.38-9.4-.16-18.75.99-1.97.24-5.67-1.83-.37-.21-.8-.2l-6.74.09q-.53.01-.99.25-3.56 1.88-7.58 2.37-.52.06-.52-.46v-1.26q0-.55-.53-.4-4.28 1.24-9.47.92-3.53-.22-7.56.53-2.2.41-4.32-.02c-3.37-.68-8.4-.49-10.12-4.61V20.44q37.1-.7 74.2-.39c72.67.6 145.43-.08 218.11-.06q485.7.11 971.4.09c4.37 0 9.86-.2 14.73.28a1.26 1.26 0 0 0 1.39-1.24l.17-16.81Z"/><path fill="#eae9e7" d="M1280 47.81V720H0V474.19l.3 1.79q.12.75.39.04 1.17-3.03 3.79-5.01a.45.45 0 0 1 .72.44c-.39 2.36-.98 6.55 1.94 7.57q.49.17.73-.29 2.94-5.65.53-11.5-.19-.46.02-.91l.41-.83q.46-.96.78.05c.51 1.6-.12 4.66 1.73 5.19q.68.2.81-.5.9-4.9-.17-9.75a.31.31 0 0 1 .56-.25q1.08 1.54 2.89 1.2a.58.58 0 0 0 .36-.91l-2.67-3.66q-.27-.38-.05-.8.13-.24.32-.26 3.51.25 10.61-.22c14.55-.95 31.26-.16 46.65-1.33q8.76-.66 17.53-1.33.59-.05.55-.64-.07-1.04 1.82-1.01.44 0 .78.28l.9.75q.47.39 1.03.15l1.92-.8q.6-.26.79.36.51 1.68 3.21 1.12c4.24-.88 10.04-3.17 14.22-2.06q.55.14.7-.4l.44-1.59q.15-.51.68-.51l5.78-.11 12.96.22a.56.56 0 0 0 .57-.59q-.27-5.45.01-10.87c.34-6.69-.75-13.29.15-20.17q3.22-7.54 1.65-15.63c-.23-1.15-.07-3.55.13-4.65 2.35-12.63.05-25.56 1.36-39.79.27-2.93 1.31-4.89-1.01-7.42q-.34-.37-.34-.88c.07-5.88 1.83-11.64 1.85-17.68q.03-11.86.77-23.68.31-4.98-.1-8.03 3.05-1.7 6.15-.37.43.19.88.1l2.95-.58q.7-.14.59.56l-.3 1.79a.36.36 0 0 0 .5.39l7.49-3.14q1.17-.49-.07-.72l-.95-.18q-.62-.12-.42-.71 1-3.07-2.01-4.53-1.27-.62.11-.87l3.32-.59q.35-.07.34-.42c-.06-1.32-3.64-.72-4.28-.41q-.47.22-.7.68c-.41.83-4 4.12-4.29 2.58q-.07-.37.26-.54l1.75-.86q.36-.18.15-.54l-.17-.3q-.22-.36-.63-.3-3.06.46-3.5-2.27-.1-.62-.72-.57-3.8.33-7.09-1.56-.54-.31-.98.13-2.09 2.1-4.95 3.09-.59.2-.58-.43c.03-2.05-1.48-2.67-3.38-2.61q-6.73.22-12.87-2.36-.38-.16-.79-.1l-8.42 1.25q-.71.11-1.17-.43-1.77-2.05-4.21-.62-.41.24-.89.2l-8.49-.67q-.56-.05-.9-.51c-2-2.72-4.5 1.96-7.61-.32q-.4-.29-.9-.3c-5.76-.02-12.44-.6-16.22 2.01q-.42.29-.93.28c-3.2-.1-10.89-1.94-13.79-.16q-.54.33-.92-.18l-1.56-2.14q-.41-.56-.93-.1-1.62 1.45-3.8 1.57-1.53.09-.49-1.03l3.66-3.93q.36-.38.87-.31l8.17 1.22q.42.07.83-.08l3.69-1.37q.7-.26 1.03.4l.74 1.45q.35.68 1.04.33l.72-.36q.89-.44.11-1.05l-1.54-1.21q-.36-.28-.03-.58l.22-.22q.42-.44.88-.04c5.12 4.51 16.78-.82 22.1 4.08q.48.44.96.01 2.14-1.88 4.65-.9.5.2 1.01 0l6.88-2.7q.48-.19.86.16l1.56 1.42q.69.63.88-.29l.37-1.79q.14-.62.77-.52l5.03.8q.62.1.82.69l.29.85q.21.61.86.58 2.02-.1 2.5-2.25.41-1.83.84-.01.27 1.17.13 2.35-.06.56.5.62c4.23.51 10.1 2.08 11.12-2.44a.46.46 0 0 1 .83-.16q.82 1.16-.12 2.09-.32.31.11.43l3.9 1.08q.41.12.8-.06l2.38-1.09q.48-.23.81.2l1.04 1.38q.44.57 1.09.27l4.23-1.97q.63-.3.39-.95l-.53-1.43q-.27-.73.5-.64 2.36.28 4.76.14 1.72-.09.17.65-1.16.55-2.38.4-1.62-.21-.27.71.87.59 1.91.37.54-.12 1.03.11 1.32.63.56 2.08-.25.49.24.73l8.37 4.07q.46.23.91-.02 1.16-.64 1.45-1.9.12-.54-.33-.88-1.22-.92-1.96-2.23-.53-.94.5-.6c4.6 1.52 11.71.53 9.69-6.35q-.14-.49-.59-.73c-4.02-2.2-8.59-5.38-12.81-6.57-4.61-1.31-9.28.18-13.85.26q-.68.01-.68.69v.71q0 .43-.42.52l-3.33.74q-.25-9.69.03-19.39c.24-8.23 2.18-18.01 2.03-27.35-.07-3.82 1-7.56.95-11.44q-.15-10.65-.27-21.29c-.05-4.85 1.12-10.49.93-15.89q-.01-.27-.27-.31l-.32-.04q-.59-.08-.6.52-.02 1.57-.64 3.04-.58 1.39-.41-.11c.81-6.89 2.04-13.92 2.27-20.64q.54-15.9.86-31.81c.15-7.16-1.65-12.59-10.08-10.95q-2.12.42-3.99.3-11.19-.7-22.39-.84c-1.48-.02-3.68-.58-5.38-.36q-2.64.35-3.89.21c-4.44-.52-16.58-1.67-20.29.48q-.44.26-.93.15c-8.22-1.83-15.83-.59-23.02-.44q-15.69.33-31.34-.59l-2.92-.21q-.46-.03-.55-.48-.31-1.57.67-2.7.3-.34.23-.79c-.19-1.07.26-8.33.26-8.34q-.34-.15-.4-.51c-.81-4.88-2.54-9.3-3.88-14.13q-.79-2.85-1.87-5.64-.54-1.38-.54.1v4.81q0 .99-.77.36l-1.13-.93Q6.54 84 6.14 84H5.01q-.6 0-.61.6-.03 1.11-.59 2.18-.37.69-.55-.07l-.61-2.5q-.38-1.56-1.01-.08Q.01 87.9 0 91.94V56.69c1.72 4.12 6.75 3.93 10.12 4.61q2.12.43 4.32.02 4.03-.75 7.56-.53 5.19.32 9.47-.92.53-.15.53.4v1.26q0 .52.52.46 4.02-.49 7.58-2.37.46-.24.99-.25l6.74-.09q.43-.01.8.2 3.7 2.07 5.67 1.83 9.35-1.15 18.75-.99 1.59.02 3.46-.38c3.62-.78 6.68.9 10.48.26q1.2-.19 3.74.79.48.19.98.1 2.59-.43 5.13-.05c3.13.47 6.16.18 9.11.92 3.11.77 5.67.27 8.68.77q2.48.42 4.81.43c2.22.01 4.36.5 6.5.4 16.1-.79 28.25-3.21 42.47-2.26 3.97.26 9.02.3 13.31.29 13.28-.02 26.47-.52 39.75-.28.85.01 1.52-.44 2.12-.98q.41-.38.41.18v.44q0 .6.6.61c16.82.13 33.69-.71 50.39-.44q22.05.36 62.2.37l640 .06q133.23.02 266.46-.13c2.52 0 5.6-1.27 8.8-.54q.49.11.94-.13 3.02-1.59 6.37-.96.51.1.98-.11 3.23-1.41 4.78-1.45 10.93-.25 14.48-10.42ZM663.44 283.53q.03-.88.45-1.77a1.47 1.46-75.7 0 0-1.23-2.08l-8.48-.57a1.86 1.85 3 0 0-1.98 1.78c-.26 7.32 6.91 4.42 11 4.05q.49-.05.41-.53-.03-.14-.07-.27-.12-.3-.1-.61Zm-167.89 18.28-1.53 8.59q-.07.4.21.69.71.74.41 1.83-.07.27-.34.33-.15.03-.31.07-.3.08-.33.39-1.12 10.61-3.11 21.07c-.62 3.29-1.17 8.43 2.48 10.34q.44.23.92.15 7.53-1.2 6.38-9.26-.08-.55-.52-.89l-1.96-1.53q-.35-.28-.25-.72c1.03-4.56 2.78-9.12 3.37-13.73.45-3.56 1.79-7.23 2.2-10.26.92-6.76 3.93-18.11 1.76-24.42q-.38-1.1-.78 0l-.4 1.09q-.22.61-.65.12c-3.8-4.28-9.27 4.49-11.28 7.81q-2.95 4.89-5.43 7.96c-6.34 7.86-15.63 22.74-26.21 24.69a1.25 1.25 0 0 1-1.48-1.3c.61-11.46 1.04-22.98.49-34.41q-.02-.51-.54-.49c-2.28.14-4.14.32-5.81 2.1-4.68 4.99-7.25 10.29-10.47 15.85-4.59 7.95-11.67 16.12-15.68 22.82q-1.18 1.97-.18 5.38.13.45.59.54c4.57.91 9.59-3.46 11.39-6.41 4.27-6.97 8.45-16.14 14.37-21.68a.5.49 77.2 0 1 .81.51q-3.59 11.46.78 22.3c4.25 10.58 19.27-5.11 22.76-9.36q8.6-10.46 17.71-20.48.85-.93.63.31ZM192.96 338.5c-1.65.86-3.22 3.61-.5 4.5 2.06 4.72 10.09-4.12 11.57-5.78q2.17-2.42 4.05-6.56c1.99-4.37 5.2-12.53 8.47-15.84a.58.58 0 0 1 .99.46c-.56 6.1-2.53 27.17 8.48 25.94 5.83-.65 11.93-8.36 15.94-14.11 1.12-1.61 2.11-4 3.76-5.78q2.76-2.99 3.33-3.83c3.07-4.48 6.39-11.37 11.53-13.62q.47-.21.69-.67c2.14-4.39 7.74-15.77-.49-17.56q-.59-.13-.93.38l-.33.5q-.46.69.37.72.16 0 .39-.01 1.71-.11-.26.61c-.66.24-1.54.76-1.85 1.43-6.45 13.93-19.06 37.82-32.11 44.19a1.22 1.22 0 0 1-1.68-.69c-2.14-5.96-.93-15.15.17-21.28q.34-1.89.04-4.49-.56-4.78 1.46-9.27c1.62-3.62-2.27-5.52-5.01-5.73q-.58-.04-.82.49c-2.93 6.65-5.52 12.73-9.66 19.14q-3.16 4.89-5.97 9.98c-2.16 3.91-5.46 7.34-7.68 11.57-1.13 2.16-2.43 3.55-3.95 5.31Zm323.49-3.33 2.4-2.71q.35-.4.87-.35c5.77.53 8.06-2.12 13.11-2.75 8.34-1.02 17.86-7.15 25.41-11.02 3.8-1.95 9.52-5.83 11.38-8.72 3.83-5.94 3.97-16.39-5.9-16q-1.25.05-1.49 1.3-.1.5-.6.57c-21 2.9-36.04 14.21-48.15 30.96q-.29.4-.78.35l-3.44-.35q-.66-.07-.57.59c.54 4.06 2.89 5.16 1.05 9.75q-.19.48-.01.97c1.03 2.74 2.15 5.01 5.19 5.98 16.82 5.33 37.88-5.06 51.61-14.47q2.89-1.98 2.96-5.46.01-.54-.5-.69c-5.68-1.62-9.17 4.34-14.43 5.51-2.95.66-6.02 2.69-8.57 4.28-4.04 2.52-8.52 3.63-12.9 5.26-6.56 2.46-10.62 3.24-16.31-.53q-1.59-1.05-.33-2.47Zm-251.76 1.14c-.31-3.42 5.57-4.22 8.86-4.67 13.99-1.92 24.56-10.06 35.89-14.68q2.05-.84 6.81-5.67c5.51-5.59 6.74-19.01-4.75-17.31q-.42.06-.72.36l-.63.64q-.39.39-.94.48-30.23 5.29-46.96 30.87-.31.46-.86.43c-5.14-.33-5.25.33-2.85 4.64q.26.45.06.93c-3.51 8.53 2.43 11.78 9.79 12.59 16.42 1.82 34.3-7.18 47.39-16.37q2.74-1.92 1.48-5.21-.17-.47-.67-.45c-6.08.25-8.48 4.56-13.34 5.63q-3.2.7-4.56 1.67c-6.24 4.43-12.87 6.53-20.38 8.95q-3.83 1.24-6.13 1.04c-1.81-.15-7.27-1.35-7.49-3.87Zm335.54-24.53-9.16-14.9q-.31-.51-.91-.52l-4.45-.08q-.81-.02-1.1.74-.94 2.43 1.3 3.47.51.24.59.81.1.76-.42.9-.58.16-.16.58c3.06 3.08 11.46 12.87 5.62 17.26-6.95 5.21-15.55 10.28-19.79 17.65a1.93 1.92 32.9 0 0 .55 2.52c9.13 6.55 16.81-4.13 20.53-11.01.73-1.35 2.39-2.68 3.66-2.99a2.59 2.58 74.4 0 1 3.06 1.73c1.61 5.13 2.26 15.29 9.42 14.85a1.74 1.73-5.8 0 0 1.61-1.97c-.34-2.44-.29-4.98-1.27-7.27q-2.54-5.89-4.35-12.11-.15-.5.12-.95 1.55-2.61 4.6-5.08 11.19-9.11 21.08-15.08.48-.29.6-.83.62-2.82-.76-5.28-.3-.54-.91-.5c-11.53.69-18.44 14.17-28.74 18.3q-.46.19-.72-.24ZM394.54 295.5l-.54.29q-.91-1.23-2.49-1.25-.53 0-.75.48-7.46 16.68-17.96 31.56c-2.82 4-6.44 7.02-10.42 9.48a.64.64 0 0 1-.96-.4q-.68-2.86-.01-5.62 2.63-10.89 4.5-21.95.09-.52.48-.87 2.44-2.13 2.38-5.44-.01-.54-.44-.87l-1.5-1.15q-.44-.34-.89-.02l-4.69 3.3q-2.83 1.23-4.01 4.21-2.25 3.65-5.32 6.65c-2.15 2.1-4.38 5.48-6.21 6.82q-6.85 5.02-13.53 9.87a.36.36 0 0 1-.55-.39c2.76-9.11 8.25-17.34 12.56-25.77q1.25-2.44.21-4.91-.26-.62.39-.79 1.21-.33 1.12-1.81a1.16 1.15-86.6 0 0-.95-1.08l-3.66-.63q-.63-.11-.73.51l-.29 1.78q-.1.6-.62.92c-3.47 2.12-2.19 5.79-4.15 7.12q-.47.32-.51-.24-.01-.14.03-.32.33-1.5-.7.31-2.88 5.05-4.34 10.69-.15.57-.69.81c-3.22 1.45-7 13.88-8.11 17.89q-1.5 5.43 2.68 7.66.46.25.97.16 3.33-.56 4.12-1.04c2.69-1.62 27.04-19.4 26.6-23.25q-.08-.68.61-.68l.65-.01q.65 0 .51.64-2.35 11.29-1.34 19.32c.68 5.37 6.02 8.29 10.55 4.74 11.29-8.86 16.93-19.36 26.02-33.93q2.96-4.75 4.59-10.05.15-.49-.02-.97c-.32-.9-.76-3.24-2.08-3.15q-.6.03-.56.64l.05.74Zm246.64 38.26c5.02-10.3 9.98-21.98 17.05-31.01 1.81-2.31 2.13-6.13-1.49-7.11q-.46-.12-.84.17c-7.93 6.05-11.63 17.58-17.65 27.39q-1.88 3.06-3.23 6.42c-1.47 3.67-8.57 9.58-6.24 13.99 2.55 4.85 20.47-3.28 14.88-8.79q-.31-.3-.74-.31l-1.31-.04q-.77-.02-.43-.71Zm131.62-28.24a.27.27 0 0 1 .41.24c-.09 6.5-2.97 9.67-7.69 14.72-8.4 8.98-19.18 17.55-31.56 19.1a1.07 1.06-6.1 0 1-1.19-.95c-.98-10.25 22.08-30.22 30.41-36.72q2.19-1.71 1.89-5.16-.07-.76-.77-.48-1.13.46-1.76-.47-.34-.51-.92-.28c-13.46 5.57-18.21 14.71-26.84 25.27-1.87 2.28-3.25 5.68-4.55 7.6-3.22 4.75-7.6 11.24-.94 15.28 8.02 4.86 18.14-.17 25.15-4.6 4.72-2.99 9.28-7.94 13.82-11.95 4.9-4.33 8.56-8.85 10.8-14.31 1.83-4.45 1.26-12.7-3.75-15.05-6.25-2.94-11.36 7.2-16.12 10.19-2.79 1.74-2.01 4.77-4.46 6.77-3.24 2.65-8.44 8.42-6.42 12.93q.23.52.77.7l2.51.81q.53.18.93-.21 4.68-4.5 5.96-7.48 4.45-10.41 14.32-15.95Zm-99.42 29.26a1.04 1.04 0 0 1-.18-1.46c6.93-8.79 16.19-15 25.68-20.18 5.7-3.11 17.68-2.56 19.86-9.3q.18-.56-.27-.94-.22-.18-.39-.07-.8.48-1.15-.39l-.45-1.15q-.21-.53-.76-.4-27.05 6.05-46.27 25.65c-2.21 2.25-6.81 10.69-2.01 12.45q.49.18.63.68.97 3.54 4.69 2.92 14.71-2.48 28.61-10.3c1.43-.8 3.15-.22 4.78-1.44q4.76-3.58 10.16-6.1c1.85-.86 4.4-3.69 6.22-3.81q4.74-.31 3.46-5.02-.13-.48-.63-.45c-3.29.19-12.89 2.02-14.82 4.95q-.28.42-.74.63c-10.61 4.78-19.22 9.96-31.66 13.15-1.32.34-3.16 1.84-4.76.58Zm510.603-14.476a14.99 14.99 0 0 0-14.885-15.094l-2.76-.02a14.99 14.99 0 0 0-15.095 14.886l-.046 6.6a14.99 14.99 0 0 0 14.885 15.094l2.76.02a14.99 14.99 0 0 0 15.095-14.886l.046-6.6ZM849 310.85a.35.35 0 0 1 .35-.35h19.3a.35.35 0 0 0 .35-.35v-3.75a.35.35 0 0 0-.35-.35l-24.3-.28a.35.35 0 0 0-.35.35v34.54a.35.35 0 0 0 .35.35l24.8-.12a.35.35 0 0 0 .35-.35v-3.73a.35.35 0 0 0-.35-.35l-19.8.05a.35.35 0 0 1-.35-.35v-11.07a.35.35 0 0 1 .35-.35l17.8.04a.35.35 0 0 0 .35-.35v-3.61a.35.35 0 0 0-.35-.35l-17.8.1a.35.35 0 0 1-.35-.35v-9.37Zm32.87 15.52c8.23.12 19.93 1.45 19.37-11.11-.3-6.75-4.1-9-10.57-9.17q-6.93-.17-13.92-.32-.5-.01-.5.49v34.24q0 .5.5.5h3.97q.53 0 .53-.53v-13.49q0-.61.62-.61Zm27.69 4.41a.43.43 0 0 1 .4-.28h12.82a.43.43 0 0 1 .4.28l3.62 9.94a.43.43 0 0 0 .4.28h4.39a.43.43 0 0 0 .4-.58l-12.82-34.39a.43.43 0 0 0-.4-.28h-4.71a.43.43 0 0 0-.4.28l-12.69 34.39a.43.43 0 0 0 .41.58h4.13a.43.43 0 0 0 .4-.28l3.65-9.94Zm49.26-7.58q3.41-2.59 3.66-5.43 1.02-11.69-10.48-11.8-7.31-.07-14.71-.25-.54-.01-.54.53v34.25q0 .5.5.5h3.69q.68 0 .69-.68l.15-13.49q0-.6.61-.64c3.59-.19 14.05-1.49 14.35 3.63q.3 5.25.91 10.61.07.62.69.6l4.89-.1a.65.64-23.1 0 0 .45-1.1c-3.7-3.72.5-13.29-4.78-15.85q-.67-.33-.08-.78Zm23.93-12.69a.3.3 0 0 1 .3-.3l10.34.13a.3.3 0 0 0 .3-.29l.18-3.84a.3.3 0 0 0-.31-.32l-26.26.16a.3.3 0 0 0-.3.3v3.6a.3.3 0 0 0 .3.3h10.35a.3.3 0 0 1 .3.3l-.02 30.15a.3.3 0 0 0 .3.3h4.22a.3.3 0 0 0 .3-.3v-30.19Zm20.75 3.35a.31.31 0 0 1 .6-.1l8.87 27.03a.31.31 0 0 0 .29.21h4.25a.31.31 0 0 0 .29-.21l9.1-27.45a.31.31 0 0 1 .6.1v27.11a.31.31 0 0 0 .31.31l4.13.06a.31.31 0 0 0 .31-.31l-.02-34.55a.31.31 0 0 0-.31-.31h-6.56a.31.31 0 0 0-.29.21l-9.35 27.98a.31.31 0 0 1-.59 0l-9.01-27.98a.31.31 0 0 0-.3-.21h-6.47a.31.31 0 0 0-.31.31l.15 34.63a.31.31 0 0 0 .31.31h3.69a.31.31 0 0 0 .31-.31v-26.83Zm42 6.17V311q0-.5.5-.5h19.05q.48 0 .48-.49v-3.69q0-.4-.39-.39l-23.99.03q-.4 0-.4.39v34.06q0 .41.41.41l24.49-.09q.7-.01.51-.69-.42-1.46.07-2.92.21-.62-.45-.62H1046q-.5 0-.5-.5v-10.75q0-.51.5-.51l17.65.02q.6 0 .6-.6v-3.17q0-.52-.51-.51l-17.71.07q-.53 0-.53-.52Zm49.96 12.85-16.88-26.35q-.27-.42-.77-.47l-4.38-.36q-.68-.06-.68.62v33.93q0 .75.75.75h3.38q.62 0 .62-.62v-26.13q0-.74.4-.12l16.9 26.35q.33.52.95.52h4.25q.5 0 .5-.5v-34.05q0-.55-.55-.57l-3.21-.14q-.75-.03-.75.71l.01 26.27q0 1.02-.54.16Zm10.3-22.85a.31.31 0 0 0 .31.31l10.35-.14a.31.31 0 0 1 .31.31l.07 30.05a.31.31 0 0 0 .3.31l4.08.08a.31.31 0 0 0 .32-.31v-30.13a.31.31 0 0 1 .31-.31l10.63.16a.31.31 0 0 0 .31-.31v-3.81a.31.31 0 0 0-.31-.31l-26.4.08a.31.31 0 0 0-.31.31l.03 3.71Zm90.24.79a.32.32 0 0 1 .32-.32h17.8a.32.32 0 0 0 .32-.3l.19-3.92a.32.32 0 0 0-.32-.34l-22.99.07a.32.32 0 0 0-.32.32v34.33a.32.32 0 0 0 .32.32l4.43.03a.32.32 0 0 0 .32-.32l-.11-15.12a.32.32 0 0 1 .32-.32h15.9a.32.32 0 0 0 .32-.32v-3.86a.32.32 0 0 0-.32-.32h-15.86a.32.32 0 0 1-.32-.32v-9.61Zm-387.56-4.42.12 34.14a.46.46 0 0 0 .46.46l13.44-.05a15.02 14.56 89.8 0 0 14.51-15.07l-.02-5.02a15.02 14.56 89.8 0 0-14.61-14.97l-13.44.05a.46.46 0 0 0-.46.46Zm-283.43 92.61c-9.59-2.75-6.57-14.33 2.02-16.53 8.67-2.23 19.95.44 21.35 10.79q.08.59.68.59l14.77.04q.53 0 .52-.52c-.53-22.29-22.36-27.81-40.32-24.31-12.5 2.44-20.8 9.34-21.09 22.53-.75 34.32 47.34 19.27 47.93 36.94.35 10.69-12.74 10.97-19.81 9.87-7.14-1.12-11.71-4.8-12.74-12.01q-.07-.46-.53-.46l-15.56.09q-.5 0-.47.5c.93 16.38 11.57 24.54 27.02 26.45 17.11 2.11 36.67-3.58 38.32-23.51 2.09-25.16-24.77-25.51-42.09-30.46Zm195.57-17.58c-11.54-14.19-35.27-17.15-50.76-8.08-17.83 10.44-21.88 33.68-16.87 52.42 5.98 22.33 28.42 31.58 49.84 25.73 28.89-7.87 34.99-48.9 17.79-70.07Zm374.92-12.92q-22.95-.75-33.84 16.06c-13.56 20.95-8.07 59.38 19.02 66.78 22.23 6.07 44.87-2.49 50.83-26.3 6.76-27.06-4.59-55.5-36.01-56.54Zm-903 16.17a.31.31 0 0 0 .31.31l23.38-.07a.31.31 0 0 1 .31.31l-.01 65.46a.31.31 0 0 0 .31.31h15.91a.31.31 0 0 0 .31-.31l-.03-65.63a.31.31 0 0 1 .31-.31h23.14a.31.31 0 0 0 .31-.31v-13.77a.31.31 0 0 0-.31-.31l-63.63.18a.31.31 0 0 0-.31.31v13.83Zm128.06 28.08a.41.4 42.9 0 1-.03-.73c8.94-4.62 11.57-13.17 10.48-22.72-1.75-15.43-13.44-18.91-26.76-18.85q-19 .1-37.92-.02-.33 0-.33.33v79.54q0 .55.56.56l15.67.17a.52.51-89.5 0 0 .52-.52v-30.28q0-.56.56-.58 5.09-.19 17.5.03c9.8.18 10.76 5.31 11.2 14.07.25 4.96.04 13.71 1.97 16.7q.26.4.73.4l17.24.01q.45 0 .54-.44c.22-1.17.01-1.68-.85-2.59-3.27-3.48-2.51-15.34-2.85-20.19-.48-7.07-1.81-12.05-8.23-14.89Zm39.79 21.97a.33.33 0 0 1 .31-.23h30.58a.33.33 0 0 1 .31.23l5.28 16.01a.33.33 0 0 0 .31.23l16.92.1a.33.33 0 0 0 .31-.44l-28.76-80.13a.33.33 0 0 0-.31-.22l-18.88.03a.33.33 0 0 0-.31.22l-28.4 80.06a.33.33 0 0 0 .31.44l16.99-.01a.33.33 0 0 0 .31-.23l5.03-16.06Zm78.83-37.23a.34.34 0 0 1 .63-.17l31.75 53.5a.34.34 0 0 0 .29.17h16.8a.34.34 0 0 0 .34-.34l.1-79.74a.34.34 0 0 0-.33-.34l-15.91-.31a.34.34 0 0 0-.35.34v53.33a.34.34 0 0 1-.63.17l-31.86-53.7a.34.34 0 0 0-.3-.17l-16.88.27a.34.34 0 0 0-.33.34v79.88a.34.34 0 0 0 .34.34l15.99-.1a.34.34 0 0 0 .34-.34l.01-53.13Zm157.57 25.27a.37.37 0 0 1 .39-.37c9.47.35 24.26 1.41 32.31-2.46 10.98-5.27 13.65-19.28 11.58-30.34-2.27-12.17-10.56-19.11-23.03-19.1q-17.97.01-37.68-.06-.57 0-.57.56v79.65q0 .39.4.39l16.11-.06q.49 0 .49-.49v-27.72Zm200.4-10.8c2.34-1.27 4.53-2.23 6.12-4.3 5.31-6.88 5.49-16.53 2.72-24.54-3.28-9.43-12.61-12.64-22-12.59q-20.2.11-40.49-.32-.75-.02-.75.74v79.55q0 .52.51.52l15.75-.04q.49-.01.49-.5v-30.22q0-.5.5-.51 7.63-.16 15.25-.25c10.39-.12 13.38 3.66 13.42 13.74q.04 7.57 1.28 16.18a1.84 1.84 0 0 0 1.83 1.58l16.75-.04a.97.97 0 0 0 .75-1.58c-2.19-2.7-2.98-5.42-3.12-9.11-.43-11.15 1.04-22.55-9-27.58q-.69-.35-.01-.73Zm41.77-27.24a.34.34 0 0 1 .34.34l-.02 65.65a.34.34 0 0 0 .34.34l16.09-.09a.34.34 0 0 0 .34-.34l-.02-65.39a.34.34 0 0 1 .34-.34l23.08-.2a.34.34 0 0 0 .34-.34v-13.63a.34.34 0 0 0-.34-.34l-63.65.09a.34.34 0 0 0-.34.34l.12 13.62a.34.34 0 0 0 .34.34l23.04-.05Zm60.44 50.01a.34.34 0 0 1 .33-.24h30.35a.34.34 0 0 1 .32.23l5.47 16.02a.34.34 0 0 0 .32.23l16.9.06a.34.34 0 0 0 .32-.46l-28.86-79.91a.34.34 0 0 0-.32-.23l-18.82.09a.34.34 0 0 0-.32.22l-28.42 79.73a.34.34 0 0 0 .32.45l16.96.1a.34.34 0 0 0 .33-.24l5.12-16.05Zm91.39-49.5a.34.34 0 0 1 .34-.34l23.07-.21a.34.34 0 0 0 .34-.34V370.9a.34.34 0 0 0-.34-.34l-63.87-.22a.34.34 0 0 0-.34.35l.37 13.76a.34.34 0 0 0 .34.33l23-.05a.34.34 0 0 1 .34.34l-.01 65.62a.34.34 0 0 0 .34.34l16.08-.05a.34.34 0 0 0 .34-.34v-65.4Zm34.26 65.77c3.88-.21 10.49-.87 16.07.11q.2.03.21-.18c.04-.65-.29-1.14-.29-1.77q.01-39.1 0-78.2 0-.58-.58-.57l-15.42.04q-.51 0-.51.5l.01 79.58q0 .52.51.49Zm137.74-53.64a.32.32 0 0 1 .59-.16l32.05 53.63a.32.32 0 0 0 .27.16h16.6a.32.32 0 0 0 .32-.32l.07-80.04a.32.32 0 0 0-.32-.32l-15.79.19a.32.32 0 0 0-.32.32l.06 53.4a.32.32 0 0 1-.6.16l-31.79-53.71a.32.32 0 0 0-.27-.16l-16.8-.06a.32.32 0 0 0-.32.32l-.16 79.9a.32.32 0 0 0 .32.32h15.77a.32.32 0 0 0 .32-.32v-53.31ZM701.03 501.21a10.08 8.54 90.4 0 0 8.61-10.02 10.08 8.54 90.4 0 0-8.47-10.14 10.08 8.54 90.4 0 0-8.61 10.02 10.08 8.54 90.4 0 0 8.47 10.14Zm225.485.04a10.12 8.56 89.8 0 0 8.525-10.15 10.12 8.56 89.8 0 0-8.595-10.09 10.12 8.56 89.8 0 0-8.525 10.15 10.12 8.56 89.8 0 0 8.595 10.09Zm220.508-.03a10.08 8.51 89.7 0 0 8.457-10.125 10.08 8.51 89.7 0 0-8.563-10.035 10.08 8.51 89.7 0 0-8.457 10.125 10.08 8.51 89.7 0 0 8.563 10.035ZM674.8 484.73a.23.23 0 0 1 .45.09v15.24q0 .32.23.54l.4.4q.37.37.37-.15v-18.37a.87.86 55.4 0 0-1.67-.31l-6.09 16.29a.35.35 0 0 1-.65 0l-6.1-16.43a.91.9-55.3 0 0-1.75.32c0 2.26-.51 17.49.39 18.58a.34.34 0 0 0 .61-.22l.03-16.16a.27.27 0 0 1 .52-.1l6.02 15.96a.44.44 0 0 0 .68.21c1.63-1.18 5.46-13.21 6.56-15.89Zm61.31 5.54c1.08-1.01 1.94-1.89 2.09-3.4.63-6.42-7.92-5.2-11.69-5.11q-.51.01-.51.52v17.69q0 .47.47.49c3.24.13 9.07.77 11.43-1.55 2.19-2.13 1.59-6.75-1.67-7.99q-.59-.22-.12-.65Zm20.23-8.25a.39.39 0 0 0-.39-.39h-.14a.39.39 0 0 0-.39.39v18.38a.39.39 0 0 0 .39.39h.14a.39.39 0 0 0 .39-.39v-18.38Zm18.78 17.14c-.13-2.63.43-16.28-.57-17.48a.45.45 0 0 0-.8.29v17.79a1.1 1.1 0 0 0 1.19 1.1c1.1-.1 9.76-.27 9.8-.58q.07-.53-.47-.53h-8.53q-.59 0-.62-.59Zm74.73-8.64c-1.19-1.7-4.71-8.4-6.27-8.98a.32.32 0 0 0-.38.46l5.97 9.92q.29.48.3 1.04l.08 8.02q.01.86.64.27c.61-.58.24-5.18.33-6.67q.14-2.25 1.41-4.35c.61-1 5.31-7.98 4.57-8.62q-.46-.39-.77.13l-5.25 8.76q-.3.51-.63.02Zm267.61-.05c-.72-.99-5.43-9.01-6.13-8.67q-.52.26-.21.76l5.85 9.31q.27.44.27.95c.01 1.3-.35 7.65.61 8.14q.4.21.4-.24v-7.76q0-.51.26-.95c.72-1.25 6.47-9.86 5.69-10.41q-.46-.34-.76.15l-5.21 8.68q-.36.6-.77.04Zm-315.956-8.438a.27.27 0 0 0-.27-.271l-.42-.002a.27.27 0 0 0-.27.27l-.068 19.28a.27.27 0 0 0 .27.27l.42.002a.27.27 0 0 0 .27-.27l.068-19.28Zm23.326.718H830q.17 0 .19-.06.04-.14.08-.26.08-.21-.15-.24c-2.01-.23-13.34-.96-13.53.11q-.08.45.38.45h4.74a1.23 1.22-.2 0 1 1.23 1.21l.2 16.52q0 .15.15.2.14.05.28.09.11.04.11-.08l.47-17.28q.02-.66.68-.66Zm69.06-.03 9.02.1q.41 0 .32-.4c-.24-1.11-9.22-.67-10.6-.62q-.54.01-.56.56c-.07 2.06-.46 18.18.63 18.69q.39.18.39-.24l-.01-9.01q0-.55.56-.55h8.45q.28 0 .28-.28l.01-.32q0-.32-.32-.34l-8.23-.37q-.58-.03-.58-.61v-5.97q0-.65.64-.64Zm59.21 9.1q3.61-.33 7.24.34c4.26.79.81 7.49 3.49 8.77a.21.21 0 0 0 .3-.21l-.79-7.05q-.07-.58-.42-1.05l-.85-1.12q-.3-.4.08-.73 4.2-3.75.38-8.3-.37-.44-.95-.46l-9.68-.37q-.69-.02-.67.66c.11 6.09-.39 18.08.48 18.93q.65.63.67-.28l.18-8.54q.01-.54.54-.59Zm49.28-9.07h9.91q.8 0 .17-.49c-1.27-1.01-10.74-.52-11.2-.51q-.51 0-.51.51v17.73q0 .56.56.58c1.31.06 11.33.62 11.39-.29q.03-.53-.5-.53h-9.83q-.62 0-.62-.63v-7.18q0-.58.58-.61c.97-.04 9.3.06 9.41-.53q.1-.55-.46-.55h-8.9q-.63 0-.63-.63v-6.25q0-.62.63-.62Zm30.76 15.27c-.63-1.67-5.33-16.49-6.15-16.27q-.56.15-.37.69l6.22 17.86a.63.63 0 0 0 1.19 0l6.35-18.07q.17-.5-.35-.48h-.31q-.39 0-.52.38l-5.38 15.88q-.32.95-.68.01Zm23.7-8.34-.32-6.28q-.03-.58.55-.6c1.16-.03 10 .2 10.14-.47q.12-.58-.47-.58h-10.65q-.42 0-.41.41l.1 18.11q.01.48.49.47l10.94-.14q.16 0 .22-.14.05-.14.09-.3.11-.41-.31-.41h-10.2q-.48 0-.48-.49l.14-7.47q0-.54.54-.54h8.79q.22 0 .33-.18l.2-.34q.28-.48-.28-.48h-8.82q-.57 0-.59-.57Zm28.22 2.17c2.16-.28 8.93-.57 9.24 1.89.13.98.56 7.34 1.52 7.22q.38-.05.34-.43l-.82-6.94q-.06-.53-.37-.95l-.8-1.12q-.35-.48.14-.8c2.71-1.79 2.69-6.59.08-8.16-2.21-1.32-7.46-.85-10.36-.79q-.51.01-.52.52c-.01 1.86-.26 18.48.36 18.67q.62.19.62-.46l.01-8.01q0-.57.56-.64Zm99.34 5.91a.27.27 0 0 1-.49.15l-11.61-17.25a.27.27 0 0 0-.49.15l.02 19.61a.27.27 0 0 0 .18.25l.63.21a.27.27 0 0 0 .36-.25V484.6a.27.27 0 0 1 .49-.15l11.6 17a.27.27 0 0 0 .5-.15l.13-19.28a.27.27 0 0 0-.27-.27h-.77a.27.27 0 0 0-.27.27l-.01 15.74Zm19.89-14.91c1.25-.19 10.23-.3 10.27-.35a.48.48 0 0 0-.38-.77l-10.83.07q-.6 0-.6.6V500q0 .52.52.51c1.2-.02 11.4.24 11.53-.23q.15-.53-.4-.53h-10.15q-.5 0-.5-.5v-7.5q0-.5.5-.5h9.1q.68 0 .34-.59c-.39-.68-8.19-.41-9.44-.42q-.5-.01-.5-.5v-6.26q0-.55.54-.63Z"/><path fill="#dead38" d="m17.75 112.71-1.91.05q-.48.01-.65.47-.65 1.8-.98 3.67c-.53 2.97 1 5.26-.51 8.63q-.19.43-.14.89.75 6.66-.15 13.33-.07.56-.57.28l-1.61-.89q-.48-.27-.77.2l-.15.26q-.24.39.05.75l1.53 1.9q.37.46.08.98-2.48 4.37-.9 9.11c.84 2.52-.14 4.58.56 7.17q1.03 3.82 1.98 7.72.37 1.5-.39.54-.47-.59-1.13-.47-.71.12-.27.69l2.02 2.61q.33.42.22.95c-.69 3.61-2.19 7.06-2.17 10.7q.03 7.36-.1 14.73-.01.47.46.51l.6.04q.74.06.29.64c-3.15 4.06.43 6.21-.11 9.58q-1.77 11.03-.52 22.15.06.6-.54.6h-.45q-.52 0-.35.49.89 2.55.53 5.26-.07.56.46.76l5.3 2.02q.44.17.61.62l.4 1.07q.25.66.9.38c1.78-.77-.99-3.18.49-5.18q.29-.39.34-.88c.64-5.76-4.5-11.42-1-16.34q.37-.52.06-1.08l-1.03-1.87q-.25-.44-.04-.91 2.32-5.19 1.65-10.77c-.3-2.5.52-4.62-.13-7.22q-.12-.5.23-.87c3.5-3.74.35-11.23-.07-15.69q-.05-.55-.4-.96-1.22-1.47-1.23-3.42 0-.63.58-.39c.52.22 1.76 3.75 2.5 4.65q.37.45.77.03c.68-.71-.8-3.35-1.17-4.14q-.18-.39-.01-.79c.33-.75.73-.39 1.12.04q1.58 1.77 4.05 1.3.6-.11.25-.61l-.76-1.11q-.29-.43.11-.76l1.32-1.07q.32-.26.61.03l.94.95q.57.57.73-.23.28-1.41 1.51-2.09.71-.39 1.04.36l1.9 4.25q.25.57-.26.92l-1.14.78q-.59.41-.28 1.06l2.29 4.78q.23.49.16 1.02-.37 2.79-1.59 5.34-.24.49-.11 1.02c.33 1.35 2.3 5.25.84 6.35q-.45.33-.98.16l-1.19-.39q-1.26-.42-.49.66.51.71 1.39.96.76.21.17.74-2.39 2.13-2.53 5.43-.04.73.6.37l1.09-.62q.6-.35.46.34l-.48 2.36q-.12.58.36.92 2.39 1.72.96 3.84-.54.8.42.9.59.06.94.63.31.51.05 1.03l-1 2.01q-.24.48-.23 1.02.04 2.45-1.62 4.17-.37.39-.1.86c.83 1.41 2.6 3.54.81 5.01q-.32.27-.63-.02l-1.12-1.06q-.69-.65-.77.29-.11 1.24.61 2.25.32.45.86.3l1.08-.32q.63-.19.42.44-.57 1.67.53 3.01.31.37.27.86-.35 4.3-2.35 8.07-.35.67.41.7 1.36.07 2.13-1.07.31-.47.83-.25c8.31 3.67 14.23-3.47 21.96.28q.45.22.89-.04l1.92-1.13q.77-.46.7.44l-.06.83q-.05.61.56.53c5.28-.78 11.66.18 15.81.42q5.23.31 10.3 1.7c1.79.49 4.05-.15 4.57 2.71q.17.91.64.12l.2-.33q.27-.46.75-.22 1.79.9 2.53-.73.32-.72.96-.26l10.28 7.45q.33.25.26.65l-.75 3.99q-.12.64.53.64h.43q.51 0 .76.44c1.4 2.41-2.72 3.26-4.48 3.28q-.5 0-.86-.34c-1.74-1.61-3.74-1.3-5.3-1.79q-5.06-1.59-10.07-3.31-.45-.15-.85.1c-.68.44-.89.7-1.76.76-5.67.35-15.55 2.72-20.45-.21q-.43-.26-.92-.19-6.56.85-13.11 1.96-.56.09-1.28-.8-.37-.47-.87-.14-2.8 1.81-6.12 1.47-1.13-.12-.41.77 2.12 2.63 2.98 5.89.16.6.77.52l1.44-.19q1.32-.17.08-.64-.82-.32-1.41-.97-.7-.79.34-.6c6.96 1.21 12.19 3.05 19.2.37 3.9-1.5 10-.52 14.36-.9q.54-.04.91.35l1 1.06q.31.32.73.16l4.45-1.68q.64-.24.61.44l-.05.93q-.02.5.48.47 7.16-.47 14.28.53c4.83.68 9.29-.51 14.34.1q7.04.85 14.13 1.15 2.72.12 2.96 2.5.06.57.64.52.71-.06.96-.8l3.33-.74q.42-.09.42-.52v-.71q0-.68.68-.69c4.57-.08 9.24-1.57 13.85-.26 4.22 1.19 8.79 4.37 12.81 6.57q.45.24.59.73c2.02 6.88-5.09 7.87-9.69 6.35q-1.03-.34-.5.6.74 1.31 1.96 2.23.45.34.33.88-.29 1.26-1.45 1.9-.45.25-.91.02l-8.37-4.07q-.49-.24-.24-.73.76-1.45-.56-2.08-.49-.23-1.03-.11-1.04.22-1.91-.37-1.35-.92.27-.71 1.22.15 2.38-.4 1.55-.74-.17-.65-2.4.14-4.76-.14-.77-.09-.5.64l.53 1.43q.24.65-.39.95l-4.23 1.97q-.65.3-1.09-.27l-1.04-1.38q-.33-.43-.81-.2l-2.38 1.09q-.39.18-.8.06l-3.9-1.08q-.43-.12-.11-.43.94-.93.12-2.09a.46.46 0 0 0-.83.16c-1.02 4.52-6.89 2.95-11.12 2.44q-.56-.06-.5-.62.14-1.18-.13-2.35-.43-1.82-.84.01-.48 2.15-2.5 2.25-.65.03-.86-.58l-.29-.85q-.2-.59-.82-.69l-5.03-.8q-.63-.1-.77.52l-.37 1.79q-.19.92-.88.29l-1.56-1.42q-.38-.35-.86-.16l-6.88 2.7q-.51.2-1.01 0-2.51-.98-4.65.9-.48.43-.96-.01c-5.32-4.9-16.98.43-22.1-4.08q-.46-.4-.88.04l-.22.22q-.33.3.03.58l1.54 1.21q.78.61-.11 1.05l-.72.36q-.69.35-1.04-.33l-.74-1.45q-.33-.66-1.03-.4l-3.69 1.37q-.41.15-.83.08l-8.17-1.22q-.51-.07-.87.31l-3.66 3.93q-1.04 1.12.49 1.03 2.18-.12 3.8-1.57.52-.46.93.1l1.56 2.14q.38.51.92.18c2.9-1.78 10.59.06 13.79.16q.51.01.93-.28c3.78-2.61 10.46-2.03 16.22-2.01q.5.01.9.3c3.11 2.28 5.61-2.4 7.61.32q.34.46.9.51l8.49.67q.48.04.89-.2 2.44-1.43 4.21.62.46.54 1.17.43l8.42-1.25q.41-.06.79.1 6.14 2.58 12.87 2.36c1.9-.06 3.41.56 3.38 2.61q-.01.63.58.43 2.86-.99 4.95-3.09.44-.44.98-.13 3.29 1.89 7.09 1.56.62-.05.72.57.44 2.73 3.5 2.27.41-.06.63.3l.17.3q.21.36-.15.54l-1.75.86q-.33.17-.26.54c.29 1.54 3.88-1.75 4.29-2.58q.23-.46.7-.68c.64-.31 4.22-.91 4.28.41q.01.35-.34.42l-3.32.59q-1.38.25-.11.87 3.01 1.46 2.01 4.53-.2.59.42.71l.95.18q1.24.23.07.72l-7.49 3.14a.36.36 0 0 1-.5-.39l.3-1.79q.11-.7-.59-.56l-2.95.58q-.45.09-.88-.1-3.1-1.33-6.15.37-1.67-.01-2.72 1.32-.36.45-.92.41-1.24-.07-1.4-1.36-.07-.48-.55-.45-.33.03-.45.29-1.08.94-2.5 1.18-.49.08-.82-.29-2.66-2.97-6.08-1.55-.49.2-1.02.16l-7.04-.6q-.48-.04-.32-.49l.61-1.68q.41-1.15-.76-.82-1.79.51-2.23 2.38-.24 1.02-.89.2-.63-.79-.78-1.81-.06-.46-.52-.51l-5.44-.68q-.67-.09-.67.59v1.1q0 .88-.76.43l-1.76-1.03q-.53-.31-1.11-.08l-5.91 2.37q-.52.21-1.04 0l-1.45-.6q-.48-.2-.87.13-2.22 1.86-4.8.79-5.89-2.45-11.5-1.02-.51.13-1-.06-2.98-1.17-5.69.75-.43.31-.79-.08-2.74-2.96-5.66-.05-.4.39-.95.26-7.29-1.79-14.81-1.56-.62.02-.82.61l-.93 2.8q-.21.6.42.71c2.43.45 4.57-.42 6.63 1.18q.42.33.9.09l2.22-1.1q.57-.29.79.31l.45 1.24q.23.62.8.29l1.52-.9q.51-.29 1 .02 2.95 1.86 6.24.56.51-.2 1.02.01 3.69 1.58 7.32-.21.41-.21.81.03 5.14 3.07 11.16 2.55a.85.84 5.1 0 1 .89 1.06q-.35 1.31.32 2.24.53.73.93-.08l.94-1.85q.36-.71.87-.11l.76.88q.65.75.71-.24.03-.54-.31-.98-.27-.35-.03-.72c1.28-1.97 8.13 4.76 11.11 1.19q.6-.72.57.22l-.04 1q-.03.97.89.68c.82-.26 4.98-2.18 4.98-.64q0 .55-.48.8l-.82.45q-.45.24-.31.72l.54 1.94q.13.47-.28.75l-2.43 1.67q-.94.65.19.86l1.98.38q.54.1.56.64l.04.68q.03.63-.53.91l-7.25 3.67a.46.46 0 0 1-.52-.75q.63-.58 1.52-.78.07-.02.02-.07-.09-.12-.19-.18-.52-.34-.55-.34l-10.47.84q-.45.04-.5-.42l-.12-1.24q-.09-.87-.81-.37-2.51 1.75-4.42-.3-.32-.35-.74-.12l-1.49.8q-.45.24-.97.23c-6.29-.2-14.73 2.97-21.34-.46q-.46-.24-.96-.12-6.67 1.47-13.48 1.65c-2.92.08-5.49.95-8.55.92q-1.01-.01-.3.71 1.85 1.89.58 4.25-.25.47-.22 1.01c.31 4.52 1.55 7.94 2.79 12.24.8 2.76-2.94 4.35-.11 6.94q.5.45.05.95l-.74.81q-.34.39-.34.92.06 5.97-.35 11.91c-.2 2.91 1.55 3.31-.21 6.53q-1.55 2.83-.78 7.01.11.6-.32 1.03l-1.91 1.95q-.31.32.01.64l.97.98q.31.31.16.71l-.39 1.04q-.24.64.42.45l1.26-.38q1.22-.36.63.76-1.72 3.29-2.23 6.99-.11.8-.71.26l-.76-.68a.29.29 0 0 0-.45.35q.98 1.78.5 3.8-.11.5-.62.43l-4.01-.54q-.54-.08-.89.35l-.97 1.19a1.32 1.32 0 0 1-2.13-.11c-.52-.79-3.21-4.36-2.78-5.02q.28-.43.74-.22c1.52.65 2.32-1.15 1.95-2.28q-.35-1.04-.84-.06l-.66 1.28q-.3.6-.49-.04c-.11-.38 2.09-6.61 2.24-8.04q.04-.41-.28-.68l-2.35-1.99q-.59-.51.03-.99 1.81-1.38.89-3.21-.22-.44-.21-.94l.11-4.25q.01-.48.25-.89 2.5-4.19-.51-8.13-.42-.56.15-.94l1.2-.82a.99.98 60.6 0 0 .34-1.24c-3.25-6.85-2.17-14.05-2.7-21.64q-.07-.97 1.33-2.49.39-.43-.1-.75-2.05-1.34-.3-3.46a1.12 1.12 0 0 0-.88-1.84c-7.09.14-5.9 6.81-6.01 11.57q-.01.53-.38.91-2.27 2.3-.29 5.11.38.54-.18.87-2.67 1.57-.92 4.17.31.46.33 1.01c.11 4.58-1.58 9.22-.96 13.52.79 5.51 4.57 19.95 1.1 24.86q-.28.41-.15.89l1.5 5.47a.52.52 0 0 1-.7.62l-.97-.42a.54.54 0 0 0-.71.69c1.53 3.83.73 6.09.47 9.9q-.59 8.72-.31 17.42c.26 8.02-2.02 16.41-2.43 24.57l-.73-.56q-.62-.48-.82.28-.27.96.36 1.62.45.46.38 1.1l-.33 3.25a.33.33 0 0 0 .5.32l1.3-.78q1.28-.76.85.67-.68 2.23.27 4.35-.19.02-.32.26-.22.42.05.8l2.67 3.66a.58.58 0 0 1-.36.91q-1.81.34-2.89-1.2a.31.31 0 0 0-.56.25q1.07 4.85.17 9.75-.13.7-.81.5c-1.85-.53-1.22-3.59-1.73-5.19q-.32-1.01-.78-.05l-.41.83q-.21.45-.02.91 2.41 5.85-.53 11.5-.24.46-.73.29c-2.92-1.02-2.33-5.21-1.94-7.57a.45.45 0 0 0-.72-.44q-2.62 1.98-3.79 5.01-.27.71-.39-.04l-.3-1.79v-39.5L.21 426q-.01-1.48 1.44-2 .51-.18.27-.67l-1-2q-.25-.51.14-.93 1.91-2.02 1.39-4.64c-.75-3.82-.57-7.47-1.29-10.96Q.13 399.81 0 394.69v-4l1.88-13.89q.06-.45-.16-.86-1.81-3.27-.79-6.78.12-.43-.04-.83-.85-2.08 0-4.09.19-.45.1-.93-1.21-6.39-.09-12.76.69-3.96.48-6.18c-.25-2.54-1.56-6.28-1.06-8.67q.15-.73.8-.36l.74.43q.8.46.68-.46-.16-1.3-1.28-1.92-.48-.27-.56-.8l-.7-4.65v-3.14q20.43-4.61 32.27-21.79c6.37-9.25 5.51-18.49 2.24-28.94q-.15-.47.02-.93 1.37-3.78-1.02-6.96-.33-.45-.85-.66-2.56-1.06-2.3-3.73.05-.57-.34-.99c-5.73-6.22-11.33-8.9-16.64-13.56q-.39-.35-.89-.52-1.46-.51-1.98-2.04-.16-.47-.65-.5-5.2-.29-9.86-2.49v-98q.39-9.3.87-18.6c.2-3.85-.48-8.27-.51-12.35L0 108.19V91.94q.01-4.04 1.64-7.81.63-1.48 1.01.08l.61 2.5q.18.76.55.07.56-1.07.59-2.18.01-.6.61-.6h1.13q.4 0 .71.25l1.13.93q.77.63.77-.36v-4.81q0-1.48.54-.1 1.08 2.79 1.87 5.64c1.34 4.83 3.07 9.25 3.88 14.13q.06.36.4.51c0 .01-.45 7.27-.26 8.34q.07.45-.23.79-.98 1.13-.67 2.7.09.45.55.48l2.92.21Zm-6.523 15.253a1.81.9 106.8 0 0 1.385-1.473 1.81.9 106.8 0 0-.339-1.993 1.81.9 106.8 0 0-1.385 1.473 1.81.9 106.8 0 0 .339 1.993Zm9.963 56.327 1.25 2.57a.64.64 0 0 0 1.22-.3q-.06-2-1.93-2.83-1.03-.46-.54.56Zm10.86 5.53c-.98-.84-2.19.12-1.76 1.21q.21.52.7.24l.98-.58q.65-.38.08-.87Z"/><path fill="#e8e7dc" d="m0 108.19.36 4.55q-.26-.02-.36-.05v-4.5Z"/><path fill="#035d94" d="M134.5 269.46q-.25.74-.96.8-.58.05-.64-.52-.24-2.38-2.96-2.5-7.09-.3-14.13-1.15c-5.05-.61-9.51.58-14.34-.1q-7.12-1-14.28-.53-.5.03-.48-.47l.05-.93q.03-.68-.61-.44l-4.45 1.68q-.42.16-.73-.16l-1-1.06q-.37-.39-.91-.35c-4.36.38-10.46-.6-14.36.9-7.01 2.68-12.24.84-19.2-.37q-1.04-.19-.34.6.59.65 1.41.97 1.24.47-.08.64l-1.44.19q-.61.08-.77-.52-.86-3.26-2.98-5.89-.72-.89.41-.77 3.32.34 6.12-1.47.5-.33.87.14.72.89 1.28.8 6.55-1.11 13.11-1.96.49-.07.92.19c4.9 2.93 14.78.56 20.45.21.87-.06 1.08-.32 1.76-.76q.4-.25.85-.1 5.01 1.72 10.07 3.31c1.56.49 3.56.18 5.3 1.79q.36.34.86.34c1.76-.02 5.88-.87 4.48-3.28q-.25-.44-.76-.44h-.43q-.65 0-.53-.64l.75-3.99q.07-.4-.26-.65l-10.28-7.45q-.64-.46-.96.26-.74 1.63-2.53.73-.48-.24-.75.22l-.2.33q-.47.79-.64-.12c-.52-2.86-2.78-2.22-4.57-2.71q-5.07-1.39-10.3-1.7c-4.15-.24-10.53-1.2-15.81-.42q-.61.08-.56-.53l.06-.83q.07-.9-.7-.44l-1.92 1.13q-.44.26-.89.04c-7.73-3.75-13.65 3.39-21.96-.28q-.52-.22-.83.25-.77 1.14-2.13 1.07-.76-.03-.41-.7 2-3.77 2.35-8.07.04-.49-.27-.86-1.1-1.34-.53-3.01.21-.63-.42-.44l-1.08.32q-.54.15-.86-.3-.72-1.01-.61-2.25.08-.94.77-.29l1.12 1.06q.31.29.63.02c1.79-1.47.02-3.6-.81-5.01q-.27-.47.1-.86 1.66-1.72 1.62-4.17-.01-.54.23-1.02l1-2.01q.26-.52-.05-1.03-.35-.57-.94-.63-.96-.1-.42-.9 1.43-2.12-.96-3.84-.48-.34-.36-.92l.48-2.36q.14-.69-.46-.34l-1.09.62q-.64.36-.6-.37.14-3.3 2.53-5.43.59-.53-.17-.74-.88-.25-1.39-.96-.77-1.08.49-.66l1.19.39q.53.17.98-.16c1.46-1.1-.51-5-.84-6.35q-.13-.53.11-1.02 1.22-2.55 1.59-5.34.07-.53-.16-1.02l-2.29-4.78q-.31-.65.28-1.06l1.14-.78q.51-.35.26-.92l-1.9-4.25q-.33-.75-1.04-.36-1.23.68-1.51 2.09-.16.8-.73.23l-.94-.95q-.29-.29-.61-.03l-1.32 1.07q-.4.33-.11.76l.76 1.11q.35.5-.25.61-2.47.47-4.05-1.3c-.39-.43-.79-.79-1.12-.04q-.17.4.01.79c.37.79 1.85 3.43 1.17 4.14q-.4.42-.77-.03c-.74-.9-1.98-4.43-2.5-4.65q-.58-.24-.58.39.01 1.95 1.23 3.42.35.41.4.96c.42 4.46 3.57 11.95.07 15.69q-.35.37-.23.87c.65 2.6-.17 4.72.13 7.22q.67 5.58-1.65 10.77-.21.47.04.91l1.03 1.87q.31.56-.06 1.08c-3.5 4.92 1.64 10.58 1 16.34q-.05.49-.34.88c-1.48 2 1.29 4.41-.49 5.18q-.65.28-.9-.38l-.4-1.07q-.17-.45-.61-.62l-5.3-2.02q-.53-.2-.46-.76.36-2.71-.53-5.26-.17-.49.35-.49h.45q.6 0 .54-.6-1.25-11.12.52-22.15c.54-3.37-3.04-5.52.11-9.58q.45-.58-.29-.64l-.6-.04q-.47-.04-.46-.51.13-7.37.1-14.73c-.02-3.64 1.48-7.09 2.17-10.7q.11-.53-.22-.95l-2.02-2.61q-.44-.57.27-.69.66-.12 1.13.47.76.96.39-.54-.95-3.9-1.98-7.72c-.7-2.59.28-4.65-.56-7.17q-1.58-4.74.9-9.11.29-.52-.08-.98l-1.53-1.9q-.29-.36-.05-.75l.15-.26q.29-.47.77-.2l1.61.89q.5.28.57-.28.9-6.67.15-13.33-.05-.46.14-.89c1.51-3.37-.02-5.66.51-8.63q.33-1.87.98-3.67.17-.46.65-.47l1.91-.05q15.65.92 31.34.59c7.19-.15 14.8-1.39 23.02.44q.49.11.93-.15c3.71-2.15 15.85-1 20.29-.48q1.25.14 3.89-.21c1.7-.22 3.9.34 5.38.36q11.2.14 22.39.84 1.87.12 3.99-.3c8.43-1.64 10.23 3.79 10.08 10.95q-.32 15.91-.86 31.81c-.23 6.72-1.46 13.75-2.27 20.64q-.17 1.5.41.11.62-1.47.64-3.04.01-.6.6-.52l.32.04q.26.04.27.31c.19 5.4-.98 11.04-.93 15.89q.12 10.64.27 21.29c.05 3.88-1.02 7.62-.95 11.44.15 9.34-1.79 19.12-2.03 27.35q-.28 9.7-.03 19.39ZM92.198 118.028a.64.51 74.8 0 0 .324-.752.64.51 74.8 0 0-.66-.484.64.51 74.8 0 0-.324.752.64.51 74.8 0 0 .66.484Zm43.62 18.911a6.28.63 89.1 0 0 .532-6.289 6.28.63 89.1 0 0-.729-6.27 6.28.63 89.1 0 0-.53 6.29 6.28.63 89.1 0 0 .728 6.27Zm-1.21 8.68a2.96.41 91 0 0 .462-2.952 2.96.41 91 0 0-.358-2.966 2.96.41 91 0 0-.462 2.952 2.96.41 91 0 0 .358 2.966Zm.352 36.501q.48-.89.15-1.94-.3-.96-.58.01-.48 1.63-.23 3.37.08.61.52.17.35-.37.12-.85-.18-.38.02-.76Zm.051 6.264a.35.35 0 0 0-.346-.354h-.02a.35.35 0 0 0-.354.346l-.082 7.9a.35.35 0 0 0 .346.354h.02a.35.35 0 0 0 .354-.346l.082-7.9Zm.149 14.886-.93 12.63a.06.06 0 0 0 .05.06l.04.01a6.27 1.36-85.8 0 0 1.82-6.16l.02-.24a6.27 1.36-85.8 0 0-.9-6.35h-.04a.06.06 0 0 0-.06.05Z"/><path fill="#eae9e7" d="M0 112.69q.1.03.36.05c.03 4.08.71 8.5.51 12.35q-.48 9.3-.87 18.6v-31Z"/><ellipse fill="#eae9e7" rx=".64" ry=".51" transform="rotate(74.8 -30.768 118.89)"/><ellipse fill="#eae9e7" rx="6.28" ry=".63" transform="rotate(89.1 1.496 134.264)"/><ellipse fill="#035d94" rx="1.81" ry=".9" transform="rotate(106.8 -40.998 67.478)"/><ellipse fill="#eae9e7" rx="2.96" ry=".41" transform="rotate(91 -2.766 137.495)"/><path fill="#eae9e7" d="M134.94 182.88q.23.48-.12.85-.44.44-.52-.17-.25-1.74.23-3.37.28-.97.58-.01.33 1.05-.15 1.94-.2.38-.02.76Z"/><path fill="#035d94" d="M21.73 183.73q1.87.83 1.93 2.83a.64.64 0 0 1-1.22.3l-1.25-2.57q-.49-1.02.54-.56Z"/><rect width=".72" height="8.6" x="-.36" y="-4.3" fill="#eae9e7" rx=".35" transform="rotate(.6 -18298.69 12950.356)"/><path fill="#035d94" d="M30.29 191.03c-.43-1.09.78-2.05 1.76-1.21q.57.49-.08.87l-.98.58q-.49.28-.7-.24Z"/><path fill="#eae9e7" d="M135.16 203.27a.06.06 0 0 1 .06-.05h.04a6.27 1.36-85.8 0 1 .9 6.35l-.02.24a6.27 1.36-85.8 0 1-1.82 6.16l-.04-.01a.06.06 0 0 1-.05-.06l.93-12.63ZM0 241.69q4.66 2.2 9.86 2.49.49.03.65.5.52 1.53 1.98 2.04.5.17.89.52c5.31 4.66 10.91 7.34 16.64 13.56q.39.42.34.99-.26 2.67 2.3 3.73.52.21.85.66 2.39 3.18 1.02 6.96-.17.46-.02.93c3.27 10.45 4.13 19.69-2.24 28.94Q20.43 320.19 0 324.8v-83.11Z"/><path fill="#b52930" d="M663.54 284.14q.04.13.07.27.08.48-.41.53c-4.09.37-11.26 3.27-11-4.05a1.86 1.85 3 0 1 1.98-1.78l8.48.57a1.47 1.46-75.7 0 1 1.23 2.08q-.42.89-.45 1.77-.02.31.1.61ZM494.92 301.5q-9.11 10.02-17.71 20.48c-3.49 4.25-18.51 19.94-22.76 9.36q-4.37-10.84-.78-22.3a.5.49 77.2 0 0-.81-.51c-5.92 5.54-10.1 14.71-14.37 21.68-1.8 2.95-6.82 7.32-11.39 6.41q-.46-.09-.59-.54-1-3.41.18-5.38c4.01-6.7 11.09-14.87 15.68-22.82 3.22-5.56 5.79-10.86 10.47-15.85 1.67-1.78 3.53-1.96 5.81-2.1q.52-.02.54.49c.55 11.43.12 22.95-.49 34.41a1.25 1.25 0 0 0 1.48 1.3c10.58-1.95 19.87-16.83 26.21-24.69q2.48-3.07 5.43-7.96c2.01-3.32 7.48-12.09 11.28-7.81q.43.49.65-.12l.4-1.09q.4-1.1.78 0c2.17 6.31-.84 17.66-1.76 24.42-.41 3.03-1.75 6.7-2.2 10.26-.59 4.61-2.34 9.17-3.37 13.73q-.1.44.25.72l1.96 1.53q.44.34.52.89 1.15 8.06-6.38 9.26-.48.08-.92-.15c-3.65-1.91-3.1-7.05-2.48-10.34q1.99-10.46 3.11-21.07.03-.31.33-.39.16-.04.31-.07.27-.06.34-.33.3-1.09-.41-1.83-.28-.29-.21-.69l1.53-8.59q.22-1.24-.63-.31ZM192.46 343l.5-4.5c1.52-1.76 2.82-3.15 3.95-5.31 2.22-4.23 5.52-7.66 7.68-11.57q2.81-5.09 5.97-9.98c4.14-6.41 6.73-12.49 9.66-19.14q.24-.53.82-.49c2.74.21 6.63 2.11 5.01 5.73q-2.02 4.49-1.46 9.27.3 2.6-.04 4.49c-1.1 6.13-2.31 15.32-.17 21.28a1.22 1.22 0 0 0 1.68.69c13.05-6.37 25.66-30.26 32.11-44.19.31-.67 1.19-1.19 1.85-1.43q1.97-.72.26-.61-.23.01-.39.01-.83-.03-.37-.72l.33-.5q.34-.51.93-.38c8.23 1.79 2.63 13.17.49 17.56q-.22.46-.69.67c-5.14 2.25-8.46 9.14-11.53 13.62q-.57.84-3.33 3.83c-1.65 1.78-2.64 4.17-3.76 5.78-4.01 5.75-10.11 13.46-15.94 14.11-11.01 1.23-9.04-19.84-8.48-25.94a.58.58 0 0 0-.99-.46c-3.27 3.31-6.48 11.47-8.47 15.84q-1.88 4.14-4.05 6.56c-1.48 1.66-9.51 10.5-11.57 5.78ZM516.45 335.17q-1.26 1.42.33 2.47c5.69 3.77 9.75 2.99 16.31.53 4.38-1.63 8.86-2.74 12.9-5.26 2.55-1.59 5.62-3.62 8.57-4.28 5.26-1.17 8.75-7.13 14.43-5.51q.51.15.5.69-.07 3.48-2.96 5.46c-13.73 9.41-34.79 19.8-51.61 14.47-3.04-.97-4.16-3.24-5.19-5.98q-.18-.49.01-.97c1.84-4.59-.51-5.69-1.05-9.75q-.09-.66.57-.59l3.44.35q.49.05.78-.35c12.11-16.75 27.15-28.06 48.15-30.96q.5-.07.6-.57.24-1.25 1.49-1.3c9.87-.39 9.73 10.06 5.9 16-1.86 2.89-7.58 6.77-11.38 8.72-7.55 3.87-17.07 10-25.41 11.02-5.05.63-7.34 3.28-13.11 2.75q-.52-.05-.87.35l-2.4 2.71Zm8.51-11.56q5.03-.53 10-1.39c3.55-.61 6.18-2.59 9.44-4.04 4.8-2.12 13.33-6.38 16.22-10.49q1.91-2.72 4.61-4.83a1.55 1.55 0 0 0-.91-2.77c-6.2-.16-13.89 1.35-19.47 4.2-7.55 3.87-20.36 12.37-23.03 20.84q-.2.62.46.62h1.83q.83 0 .58-.79l-.2-.63q-.2-.65.47-.72ZM264.69 336.31c.22 2.52 5.68 3.72 7.49 3.87q2.3.2 6.13-1.04c7.51-2.42 14.14-4.52 20.38-8.95q1.36-.97 4.56-1.67c4.86-1.07 7.26-5.38 13.34-5.63q.5-.02.67.45 1.26 3.29-1.48 5.21c-13.09 9.19-30.97 18.19-47.39 16.37-7.36-.81-13.3-4.06-9.79-12.59q.2-.48-.06-.93c-2.4-4.31-2.29-4.97 2.85-4.64q.55.03.86-.43 16.73-25.58 46.96-30.87.55-.09.94-.48l.63-.64q.3-.3.72-.36c11.49-1.7 10.26 11.72 4.75 17.31q-4.76 4.83-6.81 5.67c-11.33 4.62-21.9 12.76-35.89 14.68-3.29.45-9.17 1.25-8.86 4.67Zm9.32-12.48q4.14-.81 8.31-1.41c3.99-.58 6.66-2.17 9.94-4.14 1.74-1.04 3.81-.96 5.53-2.22 3-2.22 4.8-3.2 7.39-4.8 2.85-1.77 4.3-4.55 6.96-6.77q.36-.3.36-.77v-3.66q0-.56-.56-.51-26.66 2.63-41.86 24.41-1 1.42.73 1.55 1.6.12 2.35-1.1.3-.48.85-.58ZM600.95 312.02c10.3-4.13 17.21-17.61 28.74-18.3q.61-.04.91.5 1.38 2.46.76 5.28-.12.54-.6.83-9.89 5.97-21.08 15.08-3.05 2.47-4.6 5.08-.27.45-.12.95 1.81 6.22 4.35 12.11c.98 2.29.93 4.83 1.27 7.27a1.74 1.73-5.8 0 1-1.61 1.97c-7.16.44-7.81-9.72-9.42-14.85a2.59 2.58 74.4 0 0-3.06-1.73c-1.27.31-2.93 1.64-3.66 2.99-3.72 6.88-11.4 17.56-20.53 11.01a1.93 1.92 32.9 0 1-.55-2.52c4.24-7.37 12.84-12.44 19.79-17.65 5.84-4.39-2.56-14.18-5.62-17.26q-.42-.42.16-.58.52-.14.42-.9-.08-.57-.59-.81-2.24-1.04-1.3-3.47.29-.76 1.1-.74l4.45.08q.6.01.91.52l9.16 14.9q.26.43.72.24ZM357.24 307.25q3.91-.05 4.01-4.21l4.69-3.3q.45-.32.89.02l1.5 1.15q.43.33.44.87.06 3.31-2.38 5.44-.39.35-.48.87-1.87 11.06-4.5 21.95-.67 2.76.01 5.62a.64.64 0 0 0 .96.4c3.98-2.46 7.6-5.48 10.42-9.48q10.5-14.88 17.96-31.56.22-.48.75-.48 1.58.02 2.49 1.25.69.74 1.58 1.08.69.26.37-.4-.37-.77-1.41-.97l-.05-.74q-.04-.61.56-.64c1.32-.09 1.76 2.25 2.08 3.15q.17.48.02.97-1.63 5.3-4.59 10.05c-9.09 14.57-14.73 25.07-26.02 33.93-4.53 3.55-9.87.63-10.55-4.74q-1.01-8.03 1.34-19.32.14-.64-.51-.64l-.65.01q-.69 0-.61.68c.44 3.85-23.91 21.63-26.6 23.25q-.79.48-4.12 1.04-.51.09-.97-.16-4.18-2.23-2.68-7.66c1.11-4.01 4.89-16.44 8.11-17.89q.54-.24.69-.81 1.46-5.64 4.34-10.69 1.03-1.81.7-.31-.04.18-.03.32.04.56.51.24c1.96-1.33.68-5 4.15-7.12q.52-.32.62-.92l.29-1.78q.1-.62.73-.51l3.66.63a1.16 1.15-86.6 0 1 .95 1.08q.09 1.48-1.12 1.81-.65.17-.39.79 1.04 2.47-.21 4.91c-4.31 8.43-9.8 16.66-12.56 25.77a.36.36 0 0 0 .55.39q6.68-4.85 13.53-9.87c1.83-1.34 4.06-4.72 6.21-6.82q3.07-3 5.32-6.65ZM132.96 299.5c-1.45 3.11-2.87 5.99-.27 8.47q.33.32.4.78l.61 3.89q.08.48.31.9.86 1.53.19 3.21-.2.49-.18 1.03.16 3.43-.71 8.97-.94 5.9-.77 19.24.08 6.06 1.59 11.91c.75 2.94-.14 6.62-.14 9.68q-.02 8.77-1.2 19.41-.27 2.43.96 5.05l.04 1.71c-.18 2.29-1.53 6.56.82 6.49q-1.73 5.17-.69 10.53-.12 3.11.77 6.28c-.9 6.88.19 13.48-.15 20.17q-.28 5.42-.01 10.87a.56.56 0 0 1-.57.59l-12.96-.22c1.19-1.56.32-3.11 2.14-4.37q.37-.26.33-.71c-.33-3.61-25.52.83-29.05 1.36-1.83.27-2.48 1.24-4.49 1.07q-4.97-.41-9.75 1.1c-.79.25-2.02-.5-3-.56-9.65-.57-21.48.85-28.47.94-2.54.04-14.23.79-16.32-.72q-.41-.3-.92-.35-10.05-.93-19.86-.67c.41-8.16 2.69-16.55 2.43-24.57q-.28-8.7.31-17.42c.26-3.81 1.06-6.07-.47-9.9a.54.54 0 0 1 .71-.69l.97.42a.52.52 0 0 0 .7-.62l-1.5-5.47q-.13-.48.15-.89c3.47-4.91-.31-19.35-1.1-24.86-.62-4.3 1.07-8.94.96-13.52q-.02-.55-.33-1.01-1.75-2.6.92-4.17.56-.33.18-.87-1.98-2.81.29-5.11.37-.38.38-.91c.11-4.76-1.08-11.43 6.01-11.57a1.12 1.12 0 0 1 .88 1.84q-1.75 2.12.3 3.46.49.32.1.75-1.4 1.52-1.33 2.49c.53 7.59-.55 14.79 2.7 21.64a.99.98 60.6 0 1-.34 1.24l-1.2.82q-.57.38-.15.94 3.01 3.94.51 8.13-.24.41-.25.89l-.11 4.25q-.01.5.21.94.92 1.83-.89 3.21-.62.48-.03.99l2.35 1.99q.32.27.28.68c-.15 1.43-2.35 7.66-2.24 8.04q.19.64.49.04l.66-1.28q.49-.98.84.06c.37 1.13-.43 2.93-1.95 2.28q-.46-.21-.74.22c-.43.66 2.26 4.23 2.78 5.02a1.32 1.32 0 0 0 2.13.11l.97-1.19q.35-.43.89-.35l4.01.54q.51.07.62-.43.48-2.02-.5-3.8a.29.29 0 0 1 .45-.35l.76.68q.6.54.71-.26.51-3.7 2.23-6.99.59-1.12-.63-.76l-1.26.38q-.66.19-.42-.45l.39-1.04q.15-.4-.16-.71l-.97-.98q-.32-.32-.01-.64l1.91-1.95q.43-.43.32-1.03-.77-4.18.78-7.01c1.76-3.22.01-3.62.21-6.53q.41-5.94.35-11.91 0-.53.34-.92l.74-.81q.45-.5-.05-.95c-2.83-2.59.91-4.18.11-6.94-1.24-4.3-2.48-7.72-2.79-12.24q-.03-.54.22-1.01 1.27-2.36-.58-4.25-.71-.72.3-.71c3.06.03 5.63-.84 8.55-.92q6.81-.18 13.48-1.65.5-.12.96.12c6.61 3.43 15.05.26 21.34.46q.52.01.97-.23l1.49-.8q.42-.23.74.12 1.91 2.05 4.42.3.72-.5.81.37l.12 1.24q.05.46.5.42l10.47-.84q.03 0 .55.34.1.06.19.18.05.05-.02.07-.89.2-1.52.78a.46.46 0 0 0 .52.75l7.25-3.67q.56-.28.53-.91l-.04-.68q-.02-.54-.56-.64l-1.98-.38q-1.13-.21-.19-.86l2.43-1.67q.41-.28.28-.75l-.54-1.94q-.14-.48.31-.72l.82-.45q.48-.25.48-.8c0-1.54-4.16.38-4.98.64q-.92.29-.89-.68l.04-1q.03-.94-.57-.22c-2.98 3.57-9.83-3.16-11.11-1.19q-.24.37.03.72.34.44.31.98-.06.99-.71.24l-.76-.88q-.51-.6-.87.11l-.94 1.85q-.4.81-.93.08-.67-.93-.32-2.24a.85.84 5.1 0 0-.89-1.06q-6.02.52-11.16-2.55-.4-.24-.81-.03-3.63 1.79-7.32.21-.51-.21-1.02-.01-3.29 1.3-6.24-.56-.49-.31-1-.02l-1.52.9q-.57.33-.8-.29l-.45-1.24q-.22-.6-.79-.31l-2.22 1.1q-.48.24-.9-.09c-2.06-1.6-4.2-.73-6.63-1.18q-.63-.11-.42-.71l.93-2.8q.2-.59.82-.61 7.52-.23 14.81 1.56.55.13.95-.26 2.92-2.91 5.66.05.36.39.79.08 2.71-1.92 5.69-.75.49.19 1 .06 5.61-1.43 11.5 1.02 2.58 1.07 4.8-.79.39-.33.87-.13l1.45.6q.52.21 1.04 0l5.91-2.37q.58-.23 1.11.08l1.76 1.03q.76.45.76-.43v-1.1q0-.68.67-.59l5.44.68q.46.05.52.51.15 1.02.78 1.81.65.82.89-.2.44-1.87 2.23-2.38 1.17-.33.76.82l-.61 1.68q-.16.45.32.49l7.04.6q.53.04 1.02-.16 3.42-1.42 6.08 1.55.33.37.82.29 1.42-.24 2.5-1.18ZM15.99 361.35q.15-2.7-.96-3.34-.71-.41-.61.4.2 1.59.72 3.06.73 2 .85-.12Z"/><path fill="#dead38" d="M394.54 295.5q1.04.2 1.41.97.32.66-.37.4-.89-.34-1.58-1.08l.54-.29Z"/><path fill="#b52930" d="m641.61 334.47 1.31.04q.43.01.74.31c5.59 5.51-12.33 13.64-14.88 8.79-2.33-4.41 4.77-10.32 6.24-13.99q1.35-3.36 3.23-6.42c6.02-9.81 9.72-21.34 17.65-27.39q.38-.29.84-.17c3.62.98 3.3 4.8 1.49 7.11-7.07 9.03-12.03 20.71-17.05 31.01q-.34.69.43.71ZM772.8 305.52q-9.87 5.54-14.32 15.95-1.28 2.98-5.96 7.48-.4.39-.93.21l-2.51-.81q-.54-.18-.77-.7c-2.02-4.51 3.18-10.28 6.42-12.93 2.45-2 1.67-5.03 4.46-6.77 4.76-2.99 9.87-13.13 16.12-10.19 5.01 2.35 5.58 10.6 3.75 15.05-2.24 5.46-5.9 9.98-10.8 14.31-4.54 4.01-9.1 8.96-13.82 11.95-7.01 4.43-17.13 9.46-25.15 4.6-6.66-4.04-2.28-10.53.94-15.28 1.3-1.92 2.68-5.32 4.55-7.6 8.63-10.56 13.38-19.7 26.84-25.27q.58-.23.92.28.63.93 1.76.47.7-.28.77.48.3 3.45-1.89 5.16c-8.33 6.5-31.39 26.47-30.41 36.72a1.07 1.06-6.1 0 0 1.19.95c12.38-1.55 23.16-10.12 31.56-19.1 4.72-5.05 7.6-8.22 7.69-14.72a.27.27 0 0 0-.41-.24Z"/><path fill="#035d94" d="M139 299.29q.41 3.05.1 8.03-.74 11.82-.77 23.68c-.02 6.04-1.78 11.8-1.85 17.68q0 .51.34.88c2.32 2.53 1.28 4.49 1.01 7.42-1.31 14.23.99 27.16-1.36 39.79-.2 1.1-.36 3.5-.13 4.65q1.57 8.09-1.65 15.63-.89-3.17-.77-6.28 1.69-5.3.69-10.53c-2.35.07-1-4.2-.82-6.49 2.09-4.08 3.45-9.79 2.17-13.84a.49.49 0 0 0-.95.14q-.1 6.16-1.26 11.99-1.23-2.62-.96-5.05 1.18-10.64 1.2-19.41c0-3.06.89-6.74.14-9.68q-1.51-5.85-1.59-11.91-.17-13.34.77-19.24.87-5.54.71-8.97-.02-.54.18-1.03.67-1.68-.19-3.21-.23-.42-.31-.9l-.61-3.89q-.07-.46-.4-.78c-2.6-2.48-1.18-5.36.27-8.47q.12-.26.45-.29.48-.03.55.45.16 1.29 1.4 1.36.56.04.92-.41 1.05-1.33 2.72-1.32Zm-2.757 54.493a1.29.39 96.1 0 0 .525-1.242 1.29.39 96.1 0 0-.25-1.324 1.29.39 96.1 0 0-.526 1.242 1.29.39 96.1 0 0 .25 1.324Z"/><path fill="#eae9e7" d="M273.16 324.41q-.75 1.22-2.35 1.1-1.73-.13-.73-1.55 15.2-21.78 41.86-24.41.56-.05.56.51v3.66q0 .47-.36.77c-2.66 2.22-4.11 5-6.96 6.77-2.59 1.6-4.39 2.58-7.39 4.8-1.72 1.26-3.79 1.18-5.53 2.22-3.28 1.97-5.95 3.56-9.94 4.14q-4.17.6-8.31 1.41-.55.1-.85.58ZM524.49 324.33l.2.63q.25.79-.58.79h-1.83q-.66 0-.46-.62c2.67-8.47 15.48-16.97 23.03-20.84 5.58-2.85 13.27-4.36 19.47-4.2a1.55 1.55 0 0 1 .91 2.77q-2.7 2.11-4.61 4.83c-2.89 4.11-11.42 8.37-16.22 10.49-3.26 1.45-5.89 3.43-9.44 4.04q-4.97.86-10 1.39-.67.07-.47.72Z"/><path fill="#b52930" d="M673.38 334.78c1.6 1.26 3.44-.24 4.76-.58 12.44-3.19 21.05-8.37 31.66-13.15q.46-.21.74-.63c1.93-2.93 11.53-4.76 14.82-4.95q.5-.03.63.45 1.28 4.71-3.46 5.02c-1.82.12-4.37 2.95-6.22 3.81q-5.4 2.52-10.16 6.1c-1.63 1.22-3.35.64-4.78 1.44q-13.9 7.82-28.61 10.3-3.72.62-4.69-2.92-.14-.5-.63-.68c-4.8-1.76-.2-10.2 2.01-12.45q19.22-19.6 46.27-25.65.55-.13.76.4l.45 1.15q.35.87 1.15.39.17-.11.39.07.45.38.27.94c-2.18 6.74-14.16 6.19-19.86 9.3-9.49 5.18-18.75 11.39-25.68 20.18a1.04 1.04 0 0 0 .18 1.46Z"/><path fill="#dead38" d="M361.25 303.04q-.1 4.16-4.01 4.21 1.18-2.98 4.01-4.21Z"/><path fill="#191310" d="M1183.937 326.904a14.99 14.99 0 0 1-15.095 14.885l-2.76-.02a14.99 14.99 0 0 1-14.885-15.093l.046-6.6a14.99 14.99 0 0 1 15.095-14.885l2.76.02a14.99 14.99 0 0 1 14.885 15.093l-.046 6.6Zm-16.447 10.916a14.33 11.68 90.2 0 0 11.73-14.29 14.33 11.68 90.2 0 0-11.63-14.37 14.33 11.68 90.2 0 0-11.73 14.29 14.33 11.68 90.2 0 0 11.63 14.37ZM849 310.85v9.37a.35.35 0 0 0 .35.35l17.8-.1a.35.35 0 0 1 .35.35v3.61a.35.35 0 0 1-.35.35l-17.8-.04a.35.35 0 0 0-.35.35v11.07a.35.35 0 0 0 .35.35l19.8-.05a.35.35 0 0 1 .35.35v3.73a.35.35 0 0 1-.35.35l-24.8.12a.35.35 0 0 1-.35-.35v-34.54a.35.35 0 0 1 .35-.35l24.3.28a.35.35 0 0 1 .35.35v3.75a.35.35 0 0 1-.35.35h-19.3a.35.35 0 0 0-.35.35ZM881.25 326.98v13.49q0 .53-.53.53h-3.97q-.5 0-.5-.5v-34.24q0-.5.5-.49 6.99.15 13.92.32c6.47.17 10.27 2.42 10.57 9.17.56 12.56-11.14 11.23-19.37 11.11q-.62 0-.62.61Zm-.08-15.82.04 9.94a.69.69 0 0 0 .69.68l9.02-.03a5.37 5.04-.2 0 0 5.35-5.06v-1.24a5.37 5.04-.2 0 0-5.39-5.02l-9.02.03a.69.69 0 0 0-.69.7ZM909.56 330.78l-3.65 9.94a.43.43 0 0 1-.4.28h-4.13a.43.43 0 0 1-.41-.58l12.69-34.39a.43.43 0 0 1 .4-.28h4.71a.43.43 0 0 1 .4.28l12.82 34.39a.43.43 0 0 1-.4.58h-4.39a.43.43 0 0 1-.4-.28l-3.62-9.94a.43.43 0 0 0-.4-.28h-12.82a.43.43 0 0 0-.4.28Zm1.84-4.98a.34.34 0 0 0 .32.45h9.4a.34.34 0 0 0 .32-.45l-4.7-13.58a.34.34 0 0 0-.64 0l-4.7 13.58ZM958.9 323.98c5.28 2.56 1.08 12.13 4.78 15.85a.65.64-23.1 0 1-.45 1.1l-4.89.1q-.62.02-.69-.6-.61-5.36-.91-10.61c-.3-5.12-10.76-3.82-14.35-3.63q-.61.04-.61.64l-.15 13.49q-.01.68-.69.68h-3.69q-.5 0-.5-.5v-34.25q0-.54.54-.53 7.4.18 14.71.25 11.5.11 10.48 11.8-.25 2.84-3.66 5.43-.59.45.08.78Zm-17.17-13.44.04 10.94a.26.26 0 0 0 .26.26l9.73-.04a5.77 5.4-.2 0 0 5.75-5.42v-.66a5.77 5.4-.2 0 0-5.79-5.38l-9.73.04a.26.26 0 0 0-.26.26ZM982.75 310.51v30.19a.3.3 0 0 1-.3.3h-4.22a.3.3 0 0 1-.3-.3l.02-30.15a.3.3 0 0 0-.3-.3H967.3a.3.3 0 0 1-.3-.3v-3.6a.3.3 0 0 1 .3-.3l26.26-.16a.3.3 0 0 1 .31.32l-.18 3.84a.3.3 0 0 1-.3.29l-10.34-.13a.3.3 0 0 0-.3.3ZM1003.5 313.86v26.83a.31.31 0 0 1-.31.31h-3.69a.31.31 0 0 1-.31-.31l-.15-34.63a.31.31 0 0 1 .31-.31h6.47a.31.31 0 0 1 .3.21l9.01 27.98a.31.31 0 0 0 .59 0l9.35-27.98a.31.31 0 0 1 .29-.21h6.56a.31.31 0 0 1 .31.31l.02 34.55a.31.31 0 0 1-.31.31l-4.13-.06a.31.31 0 0 1-.31-.31v-27.11a.31.31 0 0 0-.6-.1l-9.1 27.45a.31.31 0 0 1-.29.21h-4.25a.31.31 0 0 1-.29-.21l-8.87-27.03a.31.31 0 0 0-.6.1ZM1046.03 320.55l17.71-.07q.51-.01.51.51v3.17q0 .6-.6.6l-17.65-.02q-.5 0-.5.51V336q0 .5.5.5h19.78q.66 0 .45.62-.49 1.46-.07 2.92.19.68-.51.69l-24.49.09q-.41 0-.41-.41v-34.06q0-.39.4-.39l23.99-.03q.39-.01.39.39v3.69q0 .49-.48.49H1046q-.5 0-.5.5v9.03q0 .52.53.52ZM1096 332.72l-.01-26.27q0-.74.75-.71l3.21.14q.55.02.55.57v34.05q0 .5-.5.5h-4.25q-.62 0-.95-.52l-16.9-26.35q-.4-.62-.4.12v26.13q0 .62-.62.62h-3.38q-.75 0-.75-.75v-33.93q0-.68.68-.62l4.38.36q.5.05.77.47l16.88 26.35q.54.86.54-.16ZM1105.76 310.03l-.03-3.71a.31.31 0 0 1 .31-.31l26.4-.08a.31.31 0 0 1 .31.31v3.81a.31.31 0 0 1-.31.31l-10.63-.16a.31.31 0 0 0-.31.31v30.13a.31.31 0 0 1-.32.31l-4.08-.08a.31.31 0 0 1-.3-.31l-.07-30.05a.31.31 0 0 0-.31-.31l-10.35.14a.31.31 0 0 1-.31-.31ZM1196 310.82v9.61a.32.32 0 0 0 .32.32h15.86a.32.32 0 0 1 .32.32v3.86a.32.32 0 0 1-.32.32h-15.9a.32.32 0 0 0-.32.32l.11 15.12a.32.32 0 0 1-.32.32l-4.43-.03a.32.32 0 0 1-.32-.32v-34.33a.32.32 0 0 1 .32-.32l22.99-.07a.32.32 0 0 1 .32.34l-.19 3.92a.32.32 0 0 1-.32.3h-17.8a.32.32 0 0 0-.32.32Z"/><path fill="#191310" d="M808.44 306.4a.46.46 0 0 1 .46-.46l13.44-.05a15.02 14.56 89.8 0 1 14.61 14.97l.02 5.02a15.02 14.56 89.8 0 1-14.51 15.07l-13.44.05a.46.46 0 0 1-.46-.46l-.12-34.14Zm5.02 4.26v25.46a.43.43 0 0 0 .43.43h7.68a10.68 10.19 90 0 0 10.19-10.68v-4.96a10.68 10.19 90 0 0-10.19-10.68h-7.68a.43.43 0 0 0-.43.43Z"/><ellipse fill="#eae9e7" rx="14.33" ry="11.68" transform="rotate(90.2 422.589 743.48)"/><path fill="#eae9e7" d="M813.46 310.66a.43.43 0 0 1 .43-.43h7.68a10.68 10.19-90 0 1 10.19 10.68v4.96a10.68 10.19 90 0 1-10.19 10.68h-7.68a.43.43 0 0 1-.43-.43v-25.46ZM941.73 310.54a.26.26 0 0 1 .26-.26l9.73-.04a5.77 5.4-.2 0 1 5.79 5.38v.66a5.77 5.4-.2 0 1-5.75 5.42l-9.73.04a.26.26 0 0 1-.26-.26l-.04-10.94ZM881.17 311.16a.69.69 0 0 1 .69-.7l9.02-.03a5.37 5.04-.2 0 1 5.39 5.02v1.24a5.37 5.04-.2 0 1-5.35 5.06l-9.02.03a.69.69 0 0 1-.69-.68l-.04-9.94Z"/><path fill="#e8e7dc" d="m911.4 325.8 4.7-13.58a.34.34 0 0 1 .64 0l4.7 13.58a.34.34 0 0 1-.32.45h-9.4a.34.34 0 0 1-.32-.45Z"/><path fill="#eae9e7" d="m0 327.94.7 4.65q.08.53.56.8 1.12.62 1.28 1.92.12.92-.68.46l-.74-.43q-.65-.37-.8.36c-.5 2.39.81 6.13 1.06 8.67q.21 2.22-.48 6.18-1.12 6.37.09 12.76.09.48-.1.93-.85 2.01 0 4.09.16.4.04.83-1.02 3.51.79 6.78.22.41.16.86L0 390.69v-62.75Z"/><path fill="#dead38" d="m192.96 338.5-.5 4.5c-2.72-.89-1.15-3.64.5-4.5Z"/><ellipse fill="#eae9e7" rx="1.29" ry=".39" transform="rotate(96.1 -90.228 237.54)"/><path fill="#dead38" d="M15.99 361.35q-.12 2.12-.85.12-.52-1.47-.72-3.06-.1-.81.61-.4 1.11.64.96 3.34Z"/><path fill="#058ab9" d="M527.03 382.48c-8.59 2.2-11.61 13.78-2.02 16.53 17.32 4.95 44.18 5.3 42.09 30.46-1.65 19.93-21.21 25.62-38.32 23.51-15.45-1.91-26.09-10.07-27.02-26.45q-.03-.5.47-.5l15.56-.09q.46 0 .53.46c1.03 7.21 5.6 10.89 12.74 12.01 7.07 1.1 20.16.82 19.81-9.87-.59-17.67-48.68-2.62-47.93-36.94.29-13.19 8.59-20.09 21.09-22.53 17.96-3.5 39.79 2.02 40.32 24.31q.01.52-.52.52l-14.77-.04q-.6 0-.68-.59c-1.4-10.35-12.68-13.02-21.35-10.79ZM669.82 373.35c15.49-9.07 39.22-6.11 50.76 8.08 17.2 21.17 11.1 62.2-17.79 70.07-21.42 5.85-43.86-3.4-49.84-25.73-5.01-18.74-.96-41.98 16.87-52.42Zm.67 23.38c-5.4 14.51-2.78 38.07 15.46 41.47 11.88 2.22 21.94-3.92 25.2-15.75 3.85-13.96 1.65-34.61-14.83-38.65-11.31-2.78-21.63 1.66-25.83 12.93ZM1095.5 368.51c31.42 1.04 42.77 29.48 36.01 56.54-5.96 23.81-28.6 32.37-50.83 26.3-27.09-7.4-32.58-45.83-19.02-66.78q10.89-16.81 33.84-16.06Zm18.05 57.3c4.67-10.93 4.14-29.81-5.67-38.06-7.81-6.56-21.33-6.1-28.42.67-10.97 10.47-10.69 38.09 2.34 46.77 11.02 7.34 26.46 3.03 31.75-9.38ZM192.5 384.68v-13.83a.31.31 0 0 1 .31-.31l63.63-.18a.31.31 0 0 1 .31.31v13.77a.31.31 0 0 1-.31.31H233.3a.31.31 0 0 0-.31.31l.03 65.63a.31.31 0 0 1-.31.31H216.8a.31.31 0 0 1-.31-.31l.01-65.46a.31.31 0 0 0-.31-.31l-23.38.07a.31.31 0 0 1-.31-.31ZM320.56 412.76c6.42 2.84 7.75 7.82 8.23 14.89.34 4.85-.42 16.71 2.85 20.19.86.91 1.07 1.42.85 2.59q-.09.44-.54.44l-17.24-.01q-.47 0-.73-.4c-1.93-2.99-1.72-11.74-1.97-16.7-.44-8.76-1.4-13.89-11.2-14.07q-12.41-.22-17.5-.03-.56.02-.56.58v30.28a.52.51-89.5 0 1-.52.52l-15.67-.17q-.56-.01-.56-.56v-79.54q0-.33.33-.33 18.92.12 37.92.02c13.32-.06 25.01 3.42 26.76 18.85 1.09 9.55-1.54 18.1-10.48 22.72a.41.4 42.9 0 0 .03.73Zm-37.83-27.49-.04 19.42a.81.81 0 0 0 .81.81l20.36.04a10.39 9.63.1 0 0 10.41-9.61v-1.78a10.39 9.63.1 0 0-10.37-9.65l-20.36-.04a.81.81 0 0 0-.81.81ZM360.35 434.73l-5.03 16.06a.33.33 0 0 1-.31.23l-16.99.01a.33.33 0 0 1-.31-.44l28.4-80.06a.33.33 0 0 1 .31-.22l18.88-.03a.33.33 0 0 1 .31.22l28.76 80.13a.33.33 0 0 1-.31.44l-16.92-.1a.33.33 0 0 1-.31-.23l-5.28-16.01a.33.33 0 0 0-.31-.23h-30.58a.33.33 0 0 0-.31.23Zm4.61-14.37a.3.3 0 0 0 .29.39h21.28a.3.3 0 0 0 .29-.39l-10.65-32.34a.3.3 0 0 0-.56 0l-10.65 32.34ZM439.18 397.5l-.01 53.13a.34.34 0 0 1-.34.34l-15.99.1a.34.34 0 0 1-.34-.34v-79.88a.34.34 0 0 1 .33-.34l16.88-.27a.34.34 0 0 1 .3.17l31.86 53.7a.34.34 0 0 0 .63-.17v-53.33a.34.34 0 0 1 .35-.34l15.91.31a.34.34 0 0 1 .33.34l-.1 79.74a.34.34 0 0 1-.34.34h-16.8a.34.34 0 0 1-.29-.17l-31.75-53.5a.34.34 0 0 0-.63.17ZM596.75 422.77v27.72q0 .49-.49.49l-16.11.06q-.4 0-.4-.39V371q0-.56.57-.56 19.71.07 37.68.06c12.47-.01 20.76 6.93 23.03 19.1 2.07 11.06-.6 25.07-11.58 30.34-8.05 3.87-22.84 2.81-32.31 2.46a.37.37 0 0 0-.39.37Zm-.05-37.62.08 21.96a.49.49 0 0 0 .49.49l17.04-.06A10.73 10.2-.2 0 0 625 397.3v-2.54a10.73 10.2-.2 0 0-10.77-10.16l-17.04.06a.49.49 0 0 0-.49.49ZM797.16 412.7c10.04 5.03 8.57 16.43 9 27.58.14 3.69.93 6.41 3.12 9.11a.97.97 0 0 1-.75 1.58l-16.75.04a1.84 1.84 0 0 1-1.83-1.58q-1.24-8.61-1.28-16.18c-.04-10.08-3.03-13.86-13.42-13.74q-7.62.09-15.25.25-.5.01-.5.51v30.22q0 .49-.49.5l-15.75.04q-.51 0-.51-.52v-79.55q0-.76.75-.74 20.29.43 40.49.32c9.39-.05 18.72 3.16 22 12.59 2.77 8.01 2.59 17.66-2.72 24.54-1.59 2.07-3.78 3.03-6.12 4.3q-.68.38.01.73Zm-37.71-27.29-.04 19.34a1 1 0 0 0 1 1l19.98.04a10.6 10.03.1 0 0 10.62-10.01v-1.28a10.6 10.03.1 0 0-10.58-10.05l-19.98-.04a1 1 0 0 0-1 1ZM838.92 384.73l-23.04.05a.34.34 0 0 1-.34-.34l-.12-13.62a.34.34 0 0 1 .34-.34l63.65-.09a.34.34 0 0 1 .34.34v13.63a.34.34 0 0 1-.34.34l-23.08.2a.34.34 0 0 0-.34.34l.02 65.39a.34.34 0 0 1-.34.34l-16.09.09a.34.34 0 0 1-.34-.34l.02-65.65a.34.34 0 0 0-.34-.34ZM899.36 434.74l-5.12 16.05a.34.34 0 0 1-.33.24l-16.96-.1a.34.34 0 0 1-.32-.45l28.42-79.73a.34.34 0 0 1 .32-.22l18.82-.09a.34.34 0 0 1 .32.23l28.86 79.91a.34.34 0 0 1-.32.46l-16.9-.06a.34.34 0 0 1-.32-.23l-5.47-16.02a.34.34 0 0 0-.32-.23h-30.35a.34.34 0 0 0-.33.24Zm4.74-14.79a.61.61 0 0 0 .58.8h20.36a.61.61 0 0 0 .58-.8l-10.18-31.2a.61.61 0 0 0-1.16 0l-10.18 31.2ZM990.75 385.24v65.4a.34.34 0 0 1-.34.34l-16.08.05a.34.34 0 0 1-.34-.34l.01-65.62a.34.34 0 0 0-.34-.34l-23 .05a.34.34 0 0 1-.34-.33l-.37-13.76a.34.34 0 0 1 .34-.35l63.87.22a.34.34 0 0 1 .34.34v13.45a.34.34 0 0 1-.34.34l-23.07.21a.34.34 0 0 0-.34.34ZM1041.08 451.12c-5.58-.98-12.19-.32-16.07-.11q-.51.03-.51-.49l-.01-79.58q0-.5.51-.5l15.42-.04q.58-.01.58.57.01 39.1 0 78.2c0 .63.33 1.12.29 1.77q-.01.21-.21.18ZM1162.75 397.37v53.31a.32.32 0 0 1-.32.32h-15.77a.32.32 0 0 1-.32-.32l.16-79.9a.32.32 0 0 1 .32-.32l16.8.06a.32.32 0 0 1 .27.16l31.79 53.71a.32.32 0 0 0 .6-.16l-.06-53.4a.32.32 0 0 1 .32-.32l15.79-.19a.32.32 0 0 1 .32.32l-.07 80.04a.32.32 0 0 1-.32.32h-16.6a.32.32 0 0 1-.27-.16l-32.05-53.63a.32.32 0 0 0-.59.16Z"/><path fill="#eae9e7" d="m133.79 393.75-.04-1.71q1.16-5.83 1.26-11.99a.49.49 0 0 1 .95-.14c1.28 4.05-.08 9.76-2.17 13.84ZM685.95 438.2c-18.24-3.4-20.86-26.96-15.46-41.47 4.2-11.27 14.52-15.71 25.83-12.93 16.48 4.04 18.68 24.69 14.83 38.65-3.26 11.83-13.32 17.97-25.2 15.75ZM1107.88 387.75c9.81 8.25 10.34 27.13 5.67 38.06-5.29 12.41-20.73 16.72-31.75 9.38-13.03-8.68-13.31-36.3-2.34-46.77 7.09-6.77 20.61-7.23 28.42-.67ZM282.73 385.27a.81.81 0 0 1 .81-.81l20.36.04a10.39 9.63.1 0 1 10.37 9.65v1.78a10.39 9.63.1 0 1-10.41 9.61l-20.36-.04a.81.81 0 0 1-.81-.81l.04-19.42ZM596.7 385.15a.49.49 0 0 1 .49-.49l17.04-.06A10.73 10.2-.2 0 1 625 394.76v2.54a10.73 10.2-.2 0 1-10.69 10.24l-17.04.06a.49.49 0 0 1-.49-.49l-.08-21.96ZM759.45 385.41a1 1 0 0 1 1-1l19.98.04a10.6 10.03.1 0 1 10.58 10.05v1.28a10.6 10.03.1 0 1-10.62 10.01l-19.98-.04a1 1 0 0 1-1-1l.04-19.34ZM364.96 420.36l10.65-32.34a.3.3 0 0 1 .56 0l10.65 32.34a.3.3 0 0 1-.29.39h-21.28a.3.3 0 0 1-.29-.39ZM904.1 419.95l10.18-31.2a.61.61 0 0 1 1.16 0l10.18 31.2a.61.61 0 0 1-.58.8h-20.36a.61.61 0 0 1-.58-.8ZM0 394.69q.13 5.12 1.16 10.11c.72 3.49.54 7.14 1.29 10.96q.52 2.62-1.39 4.64-.39.42-.14.93l1 2q.24.49-.27.67-1.45.52-1.44 2-.11-.03-.21-.06v-31.25ZM134.61 400.24q1 5.23-.69 10.53-1.04-5.36.69-10.53Z"/><path fill="#e8e7dc" d="M0 425.94q.1.03.21.06L0 434.69v-8.75Z"/><path fill="#035d94" d="m121 448.46-5.78.11q-.53 0-.68.51l-.44 1.59q-.15.54-.7.4c-4.18-1.11-9.98 1.18-14.22 2.06q-2.7.56-3.21-1.12-.19-.62-.79-.36l-1.92.8q-.56.24-1.03-.15l-.9-.75q-.34-.28-.78-.28-1.89-.03-1.82 1.01.04.59-.55.64-8.77.67-17.53 1.33c-15.39 1.17-32.1.38-46.65 1.33q-7.1.47-10.61.22-.95-2.12-.27-4.35.43-1.43-.85-.67l-1.3.78a.33.33 0 0 1-.5-.32l.33-3.25q.07-.64-.38-1.1-.63-.66-.36-1.62.2-.76.82-.28l.73.56q9.81-.26 19.86.67.51.05.92.35c2.09 1.51 13.78.76 16.32.72 6.99-.09 18.82-1.51 28.47-.94.98.06 2.21.81 3 .56q4.78-1.51 9.75-1.1c2.01.17 2.66-.8 4.49-1.07 3.53-.53 28.72-4.97 29.05-1.36q.04.45-.33.71c-1.82 1.26-.95 2.81-2.14 4.37Z"/><path fill="#191310" d="M701.03 501.21a10.08 8.54 90.4 0 1-8.47-10.14 10.08 8.54 90.4 0 1 8.61-10.02 10.08 8.54 90.4 0 1 8.47 10.14 10.08 8.54 90.4 0 1-8.61 10.02Zm.122-1.01a9.04 7.35 89.8 0 0 7.318-9.066 9.04 7.35 89.8 0 0-7.382-9.014 9.04 7.35 89.8 0 0-7.318 9.066 9.04 7.35 89.8 0 0 7.382 9.014ZM926.515 501.25a10.12 8.56 89.8 0 1-8.595-10.09 10.12 8.56 89.8 0 1 8.525-10.15 10.12 8.56 89.8 0 1 8.595 10.09 10.12 8.56 89.8 0 1-8.525 10.15Zm-.01-1.08a9.03 7.42 90.1 0 0 7.435-9.017 9.03 7.42 90.1 0 0-7.404-9.043 9.03 7.42 90.1 0 0-7.436 9.017 9.03 7.42 90.1 0 0 7.404 9.043ZM1147.023 501.22a10.08 8.51 89.7 0 1-8.563-10.035 10.08 8.51 89.7 0 1 8.457-10.125 10.08 8.51 89.7 0 1 8.563 10.035 10.08 8.51 89.7 0 1-8.457 10.125Zm-.13-1.04a9.03 7.42 90.3 0 0 7.467-8.991 9.03 7.42 90.3 0 0-7.373-9.069 9.03 7.42 90.3 0 0-7.467 8.991 9.03 7.42 90.3 0 0 7.373 9.069ZM674.8 484.73c-1.1 2.68-4.93 14.71-6.56 15.89a.44.44 0 0 1-.68-.21l-6.02-15.96a.27.27 0 0 0-.52.1l-.03 16.16a.34.34 0 0 1-.61.22c-.9-1.09-.39-16.32-.39-18.58a.91.9-55.3 0 1 1.75-.32l6.1 16.43a.35.35 0 0 0 .65 0l6.09-16.29a.87.86 55.4 0 1 1.67.31v18.37q0 .52-.37.15l-.4-.4q-.23-.22-.23-.54v-15.24a.23.23 0 0 0-.45-.09ZM736.23 490.92c3.26 1.24 3.86 5.86 1.67 7.99-2.36 2.32-8.19 1.68-11.43 1.55q-.47-.02-.47-.49v-17.69q0-.51.51-.52c3.77-.09 12.32-1.31 11.69 5.11-.15 1.51-1.01 2.39-2.09 3.4q-.47.43.12.65Zm-9.26-7.64.06 6.48a.74.74 0 0 0 .74.74l3.64-.03a5.86 3.88-.5 0 0 5.83-3.93v-.2a5.86 3.88-.5 0 0-5.89-3.83l-3.64.03a.74.74 0 0 0-.74.74Zm.06 8.64-.02 7.12a.68.68 0 0 0 .68.68l5.99.01a4.31 3.83.1 0 0 4.32-3.82v-.82a4.31 3.83.1 0 0-4.3-3.84l-5.99-.01a.68.68 0 0 0-.68.68Z"/><rect width=".92" height="19.16" x="755.42" y="481.63" fill="#191310" rx=".39"/><path fill="#035d94" d="M775.74 499.75h8.53q.54 0 .47.53c-.04.31-8.7.48-9.8.58a1.1 1.1 0 0 1-1.19-1.1v-17.79a.45.45 0 0 1 .8-.29c1 1.2.44 14.85.57 17.48q.03.59.62.59Z"/><path fill="#191310" d="m850.48 490.5 5.25-8.76q.31-.52.77-.13c.74.64-3.96 7.62-4.57 8.62q-1.27 2.1-1.41 4.35c-.09 1.49.28 6.09-.33 6.67q-.63.59-.64-.27l-.08-8.02q-.01-.56-.3-1.04L843.2 482a.32.32 0 0 1 .38-.46c1.56.58 5.08 7.28 6.27 8.98q.33.49.63-.02ZM1118.23 490.43l5.21-8.68q.3-.49.76-.15c.78.55-4.97 9.16-5.69 10.41q-.26.44-.26.95v7.76q0 .45-.4.24c-.96-.49-.6-6.84-.61-8.14q0-.51-.27-.95l-5.85-9.31q-.31-.5.21-.76c.7-.34 5.41 7.68 6.13 8.67q.41.56.77-.04Z"/><rect width=".96" height="19.82" x="-.48" y="-9.91" fill="#035d94" rx=".27" transform="rotate(.2 -140452.442 229712.334)"/><path fill="#191310" d="m824.15 483.41-.47 17.28q0 .12-.11.08-.14-.04-.28-.09-.15-.05-.15-.2l-.2-16.52a1.23 1.22-.2 0 0-1.23-1.21h-4.74q-.46 0-.38-.45c.19-1.07 11.52-.34 13.53-.11q.23.03.15.24-.04.12-.08.26-.02.06-.19.06h-5.17q-.66 0-.68.66ZM893.25 483.36v5.97q0 .58.58.61l8.23.37q.32.02.32.34l-.01.32q0 .28-.28.28h-8.45q-.56 0-.56.55l.01 9.01q0 .42-.39.24c-1.09-.51-.7-16.63-.63-18.69q.02-.55.56-.56c1.38-.05 10.36-.49 10.6.62q.09.4-.32.4l-9.02-.1q-.64-.01-.64.64ZM952.56 492.41l-.18 8.54q-.02.91-.67.28c-.87-.85-.37-12.84-.48-18.93q-.02-.68.67-.66l9.68.37q.58.02.95.46 3.82 4.55-.38 8.3-.38.33-.08.73l.85 1.12q.35.47.42 1.05l.79 7.05a.21.21 0 0 1-.3.21c-2.68-1.28.77-7.98-3.49-8.77q-3.63-.67-7.24-.34-.53.05-.54.59Zm-.09-9.05-.02 6.96a.66.66 0 0 0 .66.66l5.58.02a4.32 3.81.2 0 0 4.33-3.79v-.66a4.32 3.81.2 0 0-4.31-3.83l-5.58-.02a.66.66 0 0 0-.66.66ZM1001.75 483.37v6.25q0 .63.63.63h8.9q.56 0 .46.55c-.11.59-8.44.49-9.41.53q-.58.03-.58.61v7.18q0 .63.62.63h9.83q.53 0 .5.53c-.06.91-10.08.35-11.39.29q-.56-.02-.56-.58v-17.73q0-.51.51-.51c.46-.01 9.93-.5 11.2.51q.63.49-.17.49h-9.91q-.63 0-.63.62ZM1033.82 498.01l5.38-15.88q.13-.38.52-.38h.31q.52-.02.35.48l-6.35 18.07a.63.63 0 0 1-1.19 0l-6.22-17.86q-.19-.54.37-.69c.82-.22 5.52 14.6 6.15 16.27q.36.94.68-.01ZM1057.43 490.25h8.82q.56 0 .28.48l-.2.34q-.11.18-.33.18h-8.79q-.54 0-.54.54l-.14 7.47q0 .49.48.49h10.2q.42 0 .31.41-.04.16-.09.3-.06.14-.22.14l-10.94.14q-.48.01-.49-.47l-.1-18.11q-.01-.41.41-.41h10.65q.59 0 .47.58c-.14.67-8.98.44-10.14.47q-.58.02-.55.6l.32 6.28q.02.57.59.57ZM1084.5 492.49l-.01 8.01q0 .65-.62.46c-.62-.19-.37-16.81-.36-18.67q.01-.51.52-.52c2.9-.06 8.15-.53 10.36.79 2.61 1.57 2.63 6.37-.08 8.16q-.49.32-.14.8l.8 1.12q.31.42.37.95l.82 6.94q.04.38-.34.43c-.96.12-1.39-6.24-1.52-7.22-.31-2.46-7.08-2.17-9.24-1.89q-.56.07-.56.64Zm-.01-9.17.02 6.96a.61.61 0 0 0 .61.61l5.72-.02a4.37 4.01-.2 0 0 4.36-4.03v-.16a4.37 4.01-.2 0 0-4.38-3.99l-5.72.02a.61.61 0 0 0-.61.61ZM1184.4 497.76l.01-15.74a.27.27 0 0 1 .27-.27h.77a.27.27 0 0 1 .27.27l-.13 19.28a.27.27 0 0 1-.5.15l-11.6-17a.27.27 0 0 0-.49.15v16.03a.27.27 0 0 1-.36.25l-.63-.21a.27.27 0 0 1-.18-.25l-.02-19.61a.27.27 0 0 1 .49-.15l11.61 17.25a.27.27 0 0 0 .49-.15ZM1203.75 483.48v6.26q0 .49.5.5c1.25.01 9.05-.26 9.44.42q.34.59-.34.59h-9.1q-.5 0-.5.5v7.5q0 .5.5.5h10.15q.55 0 .4.53c-.13.47-10.33.21-11.53.23q-.52.01-.52-.51v-17.6q0-.6.6-.6l10.83-.07a.48.48 0 0 1 .38.77c-.04.05-9.02.16-10.27.35q-.54.08-.54.63Z"/><ellipse fill="#eae9e7" rx="9.04" ry="7.35" transform="rotate(89.8 104.121 597.366)"/><ellipse fill="#eae9e7" rx="9.03" ry="7.42" transform="rotate(90.1 218.118 708.022)"/><ellipse fill="#eae9e7" rx="9.03" ry="7.42" transform="rotate(90.3 329.177 816.05)"/><path fill="#eae9e7" d="M726.97 483.28a.74.74 0 0 1 .74-.74l3.64-.03a5.86 3.88-.5 0 1 5.89 3.83v.2a5.86 3.88-.5 0 1-5.83 3.93l-3.64.03a.74.74 0 0 1-.74-.74l-.06-6.48ZM952.47 483.36a.66.66 0 0 1 .66-.66l5.58.02a4.32 3.81.2 0 1 4.31 3.83v.66a4.32 3.81.2 0 1-4.33 3.79l-5.58-.02a.66.66 0 0 1-.66-.66l.02-6.96ZM1084.49 483.32a.61.61 0 0 1 .61-.61l5.72-.02a4.37 4.01-.2 0 1 4.38 3.99v.16a4.37 4.01-.2 0 1-4.36 4.03l-5.72.02a.61.61 0 0 1-.61-.61l-.02-6.96ZM727.03 491.92a.68.68 0 0 1 .68-.68l5.99.01a4.31 3.83.1 0 1 4.3 3.84v.82a4.31 3.83.1 0 1-4.32 3.82l-5.99-.01a.68.68 0 0 1-.68-.68l.02-7.12Z"/></svg>